<svg width="1291" height="915" viewBox="0 0 1291 915" fill="none" xmlns="http://www.w3.org/2000/svg">
<rect width="1291" height="915" fill="white"/>
<rect x="772.662" y="537.493" width="92.5273" height="110.74" fill="#FDEA6B"/>
<path fill-rule="evenodd" clip-rule="evenodd" d="M745.674 429.178C755.648 421.796 780.688 418.477 791.333 425.584C801.848 432.721 802.994 444.263 807.893 454.881C812.516 452.762 820.15 455.796 821.49 459.965C823.152 461.932 823.227 467.456 824.373 470.099C874.25 477.815 881.822 515.607 887.826 558.512C895.768 602.05 913.797 645.492 905.97 690.293C906.99 691.727 907.794 693.122 908.537 694.777C910.319 697.723 908.024 701.893 904.431 701.732C899.78 701.335 895.175 700.793 890.502 700.624C877.548 700.186 864.583 700.238 851.624 700.398L849.857 700.421C784.549 701.211 719.245 702.768 653.935 703.181C651.566 703.184 650.405 701.119 650.722 699.082C651.359 694.98 651.95 690.876 652.567 686.773C637.12 690.738 620.697 691.736 605.293 687.19C604.216 686.123 607.804 686.701 608.373 686.539C594.197 677.124 598.431 657.291 599.686 643.005C607.495 594.055 610.248 539.896 640.418 498.126C653.47 481.08 672.605 467.584 694.593 464.547L695.203 464.466C701.632 463.633 708.798 463.365 714.419 459.965C720.741 455.06 723.435 445.996 730.087 445.912C732.283 445.884 735.271 448.584 738.486 450.417C738.726 446.384 740.962 442.98 741.456 439.853L741.496 439.586C742.011 435.94 741.306 432.66 745.674 429.178ZM852.864 559.805C838.847 550.342 802.639 555.097 801.81 555.627C799.985 556.794 799.199 556.897 798.212 558.412C797.237 558.537 796.264 558.668 795.291 558.802C793.339 559.422 794.785 561.755 797.04 560.923C795.684 566.607 799.675 570.649 801.263 576.268C801.779 578.093 801.282 581.374 801.263 583.238C801.417 585.615 804.121 588.423 803.671 590.807C802.069 599.285 793.374 607.556 797.04 615.777C799.468 620.421 806.772 622.789 811.628 624.367C821.688 628.12 839.217 624.226 845.063 615.777C848.181 611.271 851.793 599.903 853.652 596.377L854.064 590.784C855.08 576.88 855.984 561.912 852.864 559.805Z" fill="#E8B18B"/>
<path fill-rule="evenodd" clip-rule="evenodd" d="M729.568 445.937L733.579 448.329L756.876 459.522C761.393 460.751 763.651 462.223 763.651 463.94V481.423C763.651 483.762 767.889 489.065 776.366 497.329L784.197 489.742L784.022 488.749C783.277 484.468 782.904 481.605 782.904 480.159C782.904 478.603 790.565 472.699 805.888 462.445L812.592 456.312L811.877 454.199C816.01 454.389 820.493 456.863 821.49 459.965C823.152 461.931 823.227 467.455 824.373 470.099C874.25 477.815 881.822 515.607 887.826 558.512C895.768 602.05 913.797 645.492 905.97 690.293C906.99 691.727 907.794 693.121 908.537 694.777C910.319 697.723 908.024 701.893 904.431 701.731C899.78 701.334 895.175 700.792 890.502 700.623C877.548 700.186 864.583 700.238 851.624 700.398L849.857 700.421C784.549 701.211 719.245 702.768 653.935 703.181C651.566 703.184 650.405 701.119 650.722 699.082C651.359 694.98 651.95 690.876 652.567 686.773C637.12 690.738 620.697 691.736 605.293 687.19C604.216 686.123 607.804 686.701 608.373 686.539C594.197 677.124 598.431 657.29 599.686 643.005C607.495 594.055 610.248 539.896 640.418 498.126C653.47 481.08 672.605 467.584 694.593 464.547L695.203 464.466L695.818 464.388C702.086 463.612 708.976 463.256 714.419 459.965C720.574 455.189 723.291 446.472 729.568 445.937ZM785.39 548.55C783.105 548.55 778.426 551.998 771.351 558.896L770.728 559.176C762.176 563.036 756.511 566.385 753.732 569.222L753.633 569.324C750.826 572.251 745.267 580.035 736.956 592.674L724.921 599.591H720.367L717.125 622.447L724.921 638.768L742.579 632.987L771.351 625.616L787.862 609.337L797.175 606.298C796.045 609.471 795.635 612.627 797.04 615.777C799.468 620.421 806.772 622.788 811.627 624.367C821.688 628.12 839.217 624.226 845.063 615.777C848.18 611.271 851.793 599.903 853.652 596.377L854.185 589.111C855.146 575.703 855.859 561.828 852.864 559.805C838.847 550.341 802.639 555.097 801.81 555.627C799.985 556.793 799.199 556.896 798.212 558.411L797.701 558.478L800.574 554.69L799.557 554.162C792.297 550.421 787.575 548.55 785.39 548.55ZM797.04 560.922C795.742 566.364 799.344 570.301 801.048 575.557L796.695 567.458L796.695 561.027C796.807 561 796.922 560.966 797.04 560.922Z" fill="#1769FF"/>
<path fill-rule="evenodd" clip-rule="evenodd" d="M727.644 445.092C728.612 444.259 730.044 445.306 729.429 446.431C728.047 448.959 726.63 451.355 724.775 453.59C723.651 454.945 722.446 456.227 721.226 457.495C724.358 460.129 727.045 463.399 729.582 466.463C732.826 470.383 735.893 474.468 739.535 478.055C743.126 481.592 747.098 484.064 751.899 485.713L752.869 486.04C757.693 487.686 762.848 489.909 765.567 494.348C766.103 495.223 765.023 496.304 764.116 495.758C759.391 492.915 753.84 492.343 748.697 490.465C743.73 488.65 739.399 485.857 735.573 482.293C731.753 478.734 728.546 474.685 725.2 470.722C721.892 466.804 718.33 463.457 714.416 460.141C708.378 464.089 701.485 465.807 694.475 467.495L693.71 467.679C686.693 469.368 679.713 471.329 673.129 474.269C667.325 476.861 661.616 479.957 656.887 484.175C651.868 488.652 647.962 494.37 644.386 499.961C636.389 512.471 630.766 526.176 625.816 540.047C620.668 554.476 616.361 569.193 612.885 584.085C611.117 591.66 609.681 599.289 608.5 606.971C607.932 610.671 607.428 614.379 606.984 618.095C606.511 622.063 606.403 626.146 605.15 629.961C604.613 631.596 603.345 632.275 602.076 632.217L601.818 635.351C601.476 639.528 601.158 643.707 601.05 647.91C600.872 654.899 600.953 661.868 601.47 668.843L601.543 669.794C601.95 674.884 602.858 680.603 606.796 684.33C610.875 688.19 617.147 689.404 622.644 689.474C635.447 689.636 647.771 683.756 659.101 678.598C670.769 673.286 682.118 667.39 693.196 660.996C698.837 657.739 704.417 654.374 709.927 650.911C712.63 649.211 715.315 647.482 717.979 645.726C719.505 644.72 720.951 643.616 722.505 642.724C721.743 642.035 721.404 640.952 722.041 640.006C717.55 636.218 715.681 629.457 715.462 623.986C715.286 619.57 715.955 615.167 716.482 610.793C716.748 608.587 717.077 606.385 717.419 604.189C717.554 603.322 717.657 602.394 717.814 601.478C705.688 607.955 693.221 613.723 680.424 618.847C673.865 621.474 667.222 623.835 660.487 625.999L659.122 626.436C652.74 628.466 646.206 630.384 639.609 631.545C639.256 631.607 638.969 631.101 639.346 630.939C645.775 628.182 652.427 625.856 658.953 623.317L660.025 622.893C659.902 622.886 659.774 622.87 659.641 622.839C655.814 621.941 652.017 620.557 648.263 619.393C644.779 618.312 640.865 617.633 637.609 616.001C637.358 615.875 637.499 615.536 637.743 615.52C641.403 615.274 645.376 616.31 648.964 616.92L650.312 617.15C652.57 617.537 654.879 617.953 657.126 618.495C657.207 617.764 657.628 617.029 658.226 616.598C664.811 611.859 664.142 602.287 664.846 595.228L665.369 589.987C666.287 580.816 667.259 571.646 668.735 562.543C668.814 562.057 669.588 562.196 669.591 562.655C669.667 573.939 668.791 585.171 668.351 596.437L668.283 598.286C668.041 605.237 667.85 612.456 663.345 617.805C663.975 617.447 664.827 617.447 665.337 618.037C665.964 618.762 666.326 619.577 666.315 620.376C670.386 618.717 674.439 617.015 678.472 615.279C691.439 609.696 704.134 603.447 716.494 596.687C717.824 595.959 719.088 596.531 719.746 597.49L719.841 597.477C719.857 597.475 719.873 597.473 719.89 597.473L719.984 597.469C719.987 597.469 719.991 597.469 719.994 597.469C721.734 596.54 724.104 597.202 725.597 598.557C725.641 598.598 725.679 598.642 725.718 598.685C727.608 597.861 729.373 596.747 730.975 595.336C734.252 592.449 737.029 588.879 739.449 585.299C743.906 578.706 747.692 571.374 753.713 565.947C758.604 561.537 764.669 558.792 771.032 557.068C771.005 556.888 771.076 556.695 771.205 556.567C771.532 556.242 771.765 556.129 772.187 556.326C772.22 556.343 772.241 556.365 772.254 556.388L772.875 555.357C773.214 554.798 773.562 554.234 773.683 554.086C774.405 553.202 775.149 552.325 775.903 551.466C777.183 550.012 778.641 548.577 780.33 547.569C784.027 545.361 787.913 546.61 791.714 547.817C794.011 548.546 796.3 549.299 798.592 550.039L798.829 550.114C800.538 550.648 802.539 551.115 803.303 552.875C803.606 553.572 803.653 554.295 803.512 554.996C819.748 550.983 837.781 552.827 853.625 557.538C854.234 557.718 854.841 558.204 854.969 558.843C856.784 567.891 857.593 577.17 856.771 586.372C856.063 594.316 854.252 602.1 850.839 609.372L850.645 609.783C847.438 616.523 842.355 624.831 834.592 626.943C829.905 628.219 824.72 627.467 819.939 627.233C815.293 627.005 810.544 626.973 805.942 626.263C801.843 625.63 798.252 623.845 795.719 620.606C793.534 617.811 792.383 614.434 791.441 611.075C791.009 611.208 790.58 611.35 790.159 611.511C788.378 612.186 786.869 613.277 785.505 614.561C782.625 617.272 780.39 620.565 777.376 623.152C774.648 625.494 771.54 627.315 768.205 628.716C761.295 631.617 753.883 632.777 746.574 634.315L746.064 634.423C740.562 635.596 734.945 637.037 730.089 639.821C729.994 640.641 729.609 641.412 728.994 641.917C729.85 642.699 730.213 643.937 729.46 645.098C727.358 648.342 723.736 650.187 720.485 652.261L720.273 652.396C717.075 654.457 713.848 656.477 710.596 658.456C703.983 662.48 697.233 666.282 690.387 669.916C679.376 675.762 668.129 681.277 656.678 686.279C657.366 689.565 657.115 692.954 657.631 696.262L657.71 696.734C657.931 697.962 657.633 698.989 656.763 699.791L656.671 699.873L656.672 699.862L656.591 699.935L656.564 699.957L656.573 699.95C656.472 700.04 656.369 700.123 656.263 700.194L656.129 700.278C655.291 700.773 654.212 700.767 653.354 700.33L653.256 700.278L653.091 700.186C651.957 699.552 651.175 697.982 651.646 696.734C652.802 693.668 653.238 690.396 654.306 687.309L653.459 687.677L652.343 688.15C640.271 693.223 626.861 697.496 613.707 694.037C607.896 692.508 602.464 689.275 599.556 684.005C596.694 678.819 596.29 672.797 596.138 667.028C595.95 659.909 596.343 652.68 597.309 645.621C597.958 640.883 598.742 636.055 599.952 631.366C599.329 630.832 598.872 630.067 598.751 629.119C598.18 624.64 599.179 619.984 599.791 615.529C600.389 611.178 601.049 606.837 601.796 602.508C603.303 593.767 605.055 585.045 607.094 576.406C610.723 561.032 615.516 545.931 621.285 531.191L621.791 529.907C627.122 516.434 633.295 503.248 641.891 491.413C646.003 485.75 650.35 480.616 656.16 476.535C661.604 472.712 667.744 469.959 674.08 467.855C680.423 465.75 686.943 464.339 693.578 463.461C700.316 462.57 707.429 462.023 713.714 459.337C712.919 457.951 713.602 456.081 714.94 455.222C719.443 452.33 723.608 448.568 727.644 445.092ZM871.811 570.841C872 570.562 872.448 570.738 872.365 571.068C870.175 579.789 868.119 588.528 866.776 597.416C864.352 613.458 864.798 629.708 864.996 645.869L865.006 646.704C865.108 655.409 865.25 664.114 865.546 672.815C865.695 677.212 865.991 681.653 865.83 686.053C865.743 688.439 865.088 690.697 864.856 693.055C864.653 695.117 864.834 697.211 864.935 699.276C865.003 700.649 862.918 700.59 862.776 699.276L862.595 697.576C862.359 695.424 862.068 693.286 861.343 691.227C860.471 688.75 860.052 686.318 859.749 683.717C859.286 679.732 859.08 675.708 858.901 671.695L858.778 668.919C858.031 652.15 858.057 635.301 859.267 618.549L859.355 617.353C860.553 601.518 862.631 584.408 871.811 570.841ZM825.122 471.039C824.55 470.811 824.75 469.97 825.383 470.116L826.536 470.383C834.978 472.349 843.267 474.478 851.147 478.135C859.032 481.794 865.708 487.257 871.012 493.974C881.324 507.032 885.609 522.901 888.991 538.754C892.751 556.371 896.173 574.052 899.965 591.663L900.67 594.944C904.178 611.346 907.491 627.758 909.932 644.355L910.107 645.559C912.569 662.626 914.05 680.284 911.364 697.396C910.832 700.781 905.036 699.938 905.262 696.594C905.917 686.924 906.386 677.306 905.933 667.615C905.479 657.922 904.544 648.271 903.15 638.663C901.976 630.578 900.227 622.593 898.679 614.571L898.436 613.304C897.14 606.482 895.804 599.666 894.471 592.85L892.478 582.645C889.492 567.364 886.447 552.069 883.007 536.884L882.802 535.991C879.436 521.382 874.472 506.079 864.373 494.478C854.124 482.704 839.452 476.775 825.122 471.039ZM787.882 625.995C788.128 625.462 788.99 625.52 789.256 625.995C790.294 627.858 790.41 630.235 790.606 632.337L790.626 632.554C790.876 635.119 791.097 637.693 791.233 640.267C791.489 645.152 791.612 650.03 791.596 654.921C791.58 659.933 791.476 664.94 791.198 669.945L791.123 671.286C790.869 675.635 790.443 680.486 788.317 684.289C787.544 685.671 785.442 685.265 784.994 683.867C783.527 679.29 784.28 673.863 784.657 669.175L784.949 665.517C785.238 661.858 785.514 658.198 785.733 654.536C786.032 649.525 786.28 644.509 786.518 639.496C786.595 637.867 786.679 636.238 786.767 634.61L786.903 632.168C787.019 630.125 787.009 627.884 787.882 625.995ZM622.97 632.482L623.619 631.873C625.612 629.977 628.131 627.057 631.078 627.238C632.253 627.311 633.001 628.259 632.758 629.382C632.237 631.784 629.716 633.03 627.902 634.497C625.914 636.102 624.04 637.819 622.17 639.552C620.511 641.088 618.916 642.669 617.359 644.298L616.777 644.912C616.218 645.504 612.244 648.998 612.674 649.904L612.697 649.945C612.817 650.118 612.617 650.357 612.419 650.296C610.703 649.769 610.81 648.339 611.459 646.891C612.705 644.107 614.889 641.533 616.796 639.156C618.697 636.784 620.755 634.576 622.97 632.482ZM794.101 562.68C792.774 559.631 787.885 559.695 785.109 559.877C778.119 560.336 770.556 562.055 764.336 565.23C757.888 568.522 753.545 573.797 749.658 579.63L749.476 579.903C745.688 585.626 742.04 592.4 736.109 596.335C733.088 598.34 729.56 600.17 725.895 600.963C725.643 601.393 725.235 601.734 724.701 601.857L724.452 601.913C723.408 602.137 721.786 602.385 720.385 602.236C720.395 602.902 720.387 603.563 720.405 604.194C720.454 606.003 720.475 607.819 720.475 609.628C720.476 613.42 720.266 617.219 720.429 621.01C720.573 624.363 721.06 627.867 722.717 630.864C723.932 633.063 725.536 634.518 727.472 635.908C732.234 633.087 737.618 631.368 743.084 630.075C749.693 628.512 756.46 627.468 762.92 625.349C766.028 624.328 769.017 622.993 771.725 621.179C774.599 619.253 776.794 616.647 779.053 614.098L779.406 613.702C781.711 611.132 784.226 608.674 787.484 607.281C790.289 606.081 793.987 605.867 796.439 604.01C797.722 603.039 797.829 601.629 797.964 600.186C796.393 600.404 794.73 600.054 793.165 599.876L792.353 599.783C790.873 599.612 789.426 599.424 787.969 599.058C787.698 598.99 787.698 598.594 787.969 598.526C789.691 598.093 791.399 597.909 793.165 597.708L793.579 597.658C795.177 597.454 796.857 597.147 798.424 597.489C798.705 596.449 799.111 595.456 799.681 594.462C800.48 593.065 801.994 591.481 802.198 589.85C802.259 589.362 802.142 588.788 801.906 588.357L801.824 588.21C801.725 588.037 801.607 587.862 801.435 587.754C801.416 587.776 801.376 587.8 801.288 587.827C800.082 588.196 799.03 587.623 798.471 586.738C796.101 587.024 793.514 586.928 791.291 587.023L789.043 587.129C786.641 587.236 784.13 587.283 781.874 586.811C781.558 586.746 781.463 586.236 781.779 586.105C784.553 584.951 787.919 584.583 790.889 584.141C792.549 583.893 794.22 583.704 795.884 583.486C796.991 583.341 798.167 583.101 799.315 583.043C802.193 579.561 800.642 574.068 796.637 572.569C795.178 573.192 793.866 572.83 792.272 572.697C790.681 572.564 789.086 572.474 787.488 572.481C784.287 572.494 780.895 573.313 777.724 572.961C777.209 572.903 776.73 572.236 777.242 571.829C779.669 569.905 783.147 569.277 786.227 568.867L786.866 568.784C787.898 568.652 789.154 568.46 790.457 568.346C790.751 567.788 791.28 567.365 792.074 567.261C792.31 567.229 792.547 567.211 792.784 567.191L792.78 567.168C794.716 567.078 794.632 563.9 794.101 562.68ZM661.545 622.144C661.511 622.195 661.474 622.244 661.434 622.291L661.372 622.36L661.691 622.234L661.545 622.144ZM827.889 555.867C819.739 555.016 811.578 555.195 803.404 555.424C802.75 557.502 800.474 559.273 798.269 559.34C799.996 561.894 800.175 565.352 798.964 568.061C801.535 569.056 803.75 570.842 805.094 573.387C806.959 576.915 806.715 580.84 804.872 584.1C806.445 585.484 807.373 587.731 807.28 589.849C807.176 592.212 805.728 594.229 804.524 596.185C803.224 598.3 803.18 600.162 802.78 602.531C802.196 605.997 799.79 608.1 796.695 609.413L796.859 610.042C797.657 613.061 798.65 616.247 800.931 618.454C803.865 621.295 808.417 621.268 812.294 621.448L812.481 621.457C816.031 621.629 819.579 621.832 823.127 622.027L825.789 622.172C829.875 622.39 833.798 622.416 837.134 619.791C842.579 615.506 846.312 608.414 848.675 602.136C853.634 588.959 853.694 574.498 851.417 560.774C843.783 558.383 835.861 556.699 827.889 555.867ZM760.114 577.729L760.174 577.733C761.852 577.919 763.005 579.24 763.415 580.806C764.011 583.083 763.719 585.142 765.154 587.197C766.63 589.311 767.537 591.003 767.752 593.614C767.84 594.688 767.799 595.76 768.046 596.811L768.224 597.548C768.413 598.334 768.568 599.091 768.474 599.934C768.388 600.703 768.003 601.303 767.209 601.549C764.622 602.353 762.624 600.501 761.956 598.158C761.378 596.134 762.149 593.722 761.335 591.821C760.883 590.767 760.051 589.886 759.581 588.826C759.115 587.774 758.881 586.676 758.806 585.533C758.664 583.372 760.631 580.775 759.534 578.817C759.3 578.399 759.565 577.716 760.114 577.729ZM725.749 555.425C727.5 555.079 729.488 554.286 731.216 554.945C732.104 555.284 732.543 556.336 731.792 557.068C730.49 558.337 728.596 558.408 726.842 558.707L726.687 558.734C724.612 559.107 722.534 559.461 720.453 559.796C716.537 560.427 712.612 560.984 708.673 561.458C704.628 561.944 700.571 562.377 696.509 562.703L694.936 562.829C691.505 563.095 687.934 563.297 684.567 562.786C684.078 562.711 684.157 562.019 684.567 561.898C688.256 560.813 692.302 560.522 696.116 560.063C700.17 559.574 704.217 559.057 708.254 558.445C712.284 557.833 716.31 557.176 720.32 556.451C722.132 556.123 723.942 555.781 725.749 555.425ZM788.964 551.941C787.426 551.412 785.735 550.628 784.069 550.89C781.196 551.343 778.64 554.063 776.366 555.854L777.507 555.639C783.35 554.547 791.086 553.372 795.991 556.982C796.003 556.961 796.013 556.94 796.027 556.919C796.423 556.335 796.882 555.879 797.382 555.379C797.43 555.335 797.476 555.29 797.522 555.244L797.792 554.965L797.174 554.757C795.851 554.302 794.283 553.715 794.036 553.629L794.018 553.624C792.332 553.068 790.643 552.519 788.964 551.941ZM740.962 432.925C740.722 429.92 745.534 429.945 745.773 432.925C746.293 439.432 744.786 445.878 741.543 451.582C741.519 451.624 741.493 451.661 741.468 451.7C743.496 452.726 745.548 453.71 747.645 454.59C750.327 455.715 753.06 456.74 755.842 457.609C758.358 458.396 761.459 458.707 763.574 460.344C768.035 463.797 766.359 470.962 765.501 475.606L765.367 476.34C764.94 478.73 764.631 481.182 765.668 483.475C766.775 485.925 769.014 487.743 771.011 489.496L771.414 489.851C773.184 491.418 775.205 493.321 776.503 495.445C777.688 493.064 779.303 491.119 781.01 488.929C782.228 487.366 781.361 486.851 780.486 485.324C779.644 483.855 779.232 482.288 779.496 480.612C779.982 477.516 782.528 475.279 785.062 473.599C788.055 471.616 791.395 470.146 794.489 468.301C800.846 464.51 807.037 460.175 812.615 455.361C812.769 455.228 813.036 455.402 812.913 455.584C808.507 462.098 803.34 467.726 796.99 472.504C794.416 474.441 791.711 476.048 788.988 477.737L788.206 478.225C787.112 478.914 785.749 479.833 785.254 481.005C784.757 482.184 785.818 483.074 786.389 484.05C788.202 487.15 787.327 490.043 785.178 492.672L785.077 492.793C782.942 495.351 781.323 497.73 780.549 500.998C778.885 508.018 781.202 515.33 783.628 521.921L783.723 522.18C785.035 525.733 786.43 529.259 787.57 532.868L787.883 533.866C788.916 537.187 789.762 540.462 788.603 543.876C788.209 545.038 786.58 545.312 785.903 544.219C783.515 540.365 782.92 535.728 781.424 531.49C779.965 527.361 778.29 523.306 776.881 519.159C775.067 513.821 773.853 508.074 774.512 502.474C774.493 502.442 774.471 502.411 774.455 502.376L773.993 501.395C772.734 498.736 771.518 496.415 769.227 494.296C766.839 492.085 764.246 490.128 762.366 487.452C758.283 481.64 760.808 475.174 761.302 468.819L761.358 468.04C761.448 466.72 761.497 464.927 760.61 464.014C759.612 462.986 757.273 462.723 755.949 462.268C752.528 461.092 749.157 459.721 745.947 458.075C742.891 456.508 739.93 454.777 737.174 452.749L735.777 451.727C733.572 450.111 731.286 448.346 729.809 446.145C729.639 445.892 729.928 445.483 730.237 445.605C732.703 446.577 734.957 448.125 737.264 449.471C737.3 449.389 737.342 449.306 737.389 449.223C740.244 444.201 741.418 438.637 740.962 432.925ZM819.745 467.331C820.728 464.712 825.206 464.915 825.028 468.026C824.891 470.417 823.846 472.575 822.891 474.745L822.79 474.978C821.804 477.239 820.665 479.363 819.303 481.435C816.699 485.398 813.65 489.075 810.393 492.545C807.44 495.691 803.564 497.615 799.098 497.295C797.217 497.161 795.317 496.695 793.668 495.782C791.71 494.697 789.583 491.438 787.084 492.227C786.843 492.303 786.617 491.959 786.826 491.796C789.711 489.539 792.985 493.039 795.746 493.883C799.908 495.153 804.178 493.748 806.857 490.479C809.653 487.065 812.227 483.243 814.577 479.526C815.771 477.639 816.86 475.68 817.8 473.661C818.749 471.623 818.965 469.409 819.745 467.331ZM813.037 451.214C812.916 450.853 813.378 450.509 813.705 450.715C815.6 451.914 817.243 453.499 818.991 454.888C820.931 456.429 822.885 457.938 824.869 459.425C827.762 461.592 824.407 465.582 821.861 463.214C818.376 459.976 814.56 455.741 813.037 451.214ZM802.631 438.538C803.401 435.652 807.955 436.842 807.292 439.695L807.27 439.781C806.013 444.493 807.803 449.289 811.625 452.343L811.766 452.454C814.183 454.334 810.758 457.622 808.364 455.759C803.138 451.694 800.963 444.789 802.631 438.538Z" fill="black"/>
<path fill-rule="evenodd" clip-rule="evenodd" d="M851.447 353.733C849.919 329.306 841.781 301.613 817.829 289.62C765.027 268.981 695.603 320.956 691.928 374.053C690.646 392.229 701.008 412.089 719.942 417.143C724.152 422.575 730.518 425.892 736.802 428.771C811.646 466.591 859.993 435.848 851.447 353.733Z" fill="#E8B18B"/>
<path fill-rule="evenodd" clip-rule="evenodd" d="M868.498 338.539C865.853 331.384 863.059 324.284 860.119 317.239C857.257 310.382 854.671 303.378 851.116 296.846C829.884 257.836 791.274 257.836 771.315 262.933C760.965 258.59 741.579 259.815 730.802 263.734C713.355 270.079 692.087 295.038 684.815 306.252C668.76 331.011 658.741 363.964 669.405 392.575C670.799 396.314 672.577 399.777 674.578 403.114C673.318 404.779 671.866 406.355 670.259 407.904C665.482 412.507 660.705 416.958 656.578 422.15C652.477 427.31 649.077 432.797 646.546 438.846C641.774 450.255 641.544 463.173 647.854 474.059C653.343 483.53 663.067 490.584 674.022 491.256C674.584 491.332 675.148 491.402 675.713 491.458C677.165 493.786 678.935 495.93 680.955 497.8C687.144 503.533 701.897 506.474 710.312 506.663C710.743 507 711.179 507.338 711.614 507.672C716.763 511.619 722.166 515.6 728.077 518.408C732.08 520.313 737.33 521.903 741.507 520.529C743.402 521.762 746.511 521.503 748.39 520.493C751.478 518.836 753.99 515.852 755.518 512.797C759.223 505.379 758.332 497.262 757.381 489.337C756.333 480.584 755.325 471.827 754.3 463.074C753.498 456.229 752.659 449.271 750.522 442.677C749.418 439.261 747.97 435.978 746.099 432.891C746.148 432.632 746.14 432.373 746.063 432.129C745.45 430.19 744.184 429.172 742.684 427.853C742.491 427.684 742.297 427.511 742.108 427.335C741.358 426.502 740.555 425.729 739.697 425.073C739.366 424.747 739.039 424.417 738.713 424.087C735.999 421.319 733.435 418.409 731.157 415.291C728.947 412.267 726.952 409.11 725.053 405.894C723.121 402.622 721.843 399.014 719.916 395.766C719.751 395.487 719.331 395.432 719.097 395.664C718.501 396.265 718.118 396.932 718.19 397.635L717.892 397.678C717.779 396.618 716.775 395.754 715.412 395.986C713.372 396.331 711.695 396.461 709.929 395.801C710.239 393.795 710.525 391.784 710.808 389.77C711.324 386.062 711.803 382.344 712.215 378.625C713.211 378.857 714.198 379.19 715.166 379.614C716.545 380.215 717.847 381.024 718.96 382.018C720.057 382.999 720.815 384.323 722.154 385.006C723.694 385.788 725.553 384.496 725.101 382.799C724.186 379.371 719.005 377.408 715.799 376.76C714.698 376.536 713.574 376.441 712.449 376.465C712.703 374.077 712.928 371.69 713.114 369.298C713.203 368.167 713.283 367.036 713.36 365.902C715.852 365.167 718.521 364.947 721.113 365.293C721.968 365.957 722.823 366.612 723.649 367.276C726.274 369.389 728.887 371.513 731.467 373.677C731.701 373.869 731.931 374.062 732.165 374.258C733.697 375.542 735.608 374.27 735.35 372.452C733.245 357.553 742.616 345.701 753.587 336.52C765.731 326.353 787.81 325.169 802.253 307.559C808.904 308.878 823.755 312.794 829.884 322.305C838.464 335.633 837.343 347.575 837.996 362.693C838.649 377.824 840.31 393.606 836.782 408.525C833.529 422.281 824.719 434.034 811.05 439.437C810.712 439.571 810.369 439.701 810.026 439.826C802.958 442.422 795.245 443.156 787.81 441.79C779.581 440.274 772.71 436.606 765.864 432.094C765.469 431.839 764.892 432.365 765.191 432.75C774.214 444.397 791.939 448.289 805.998 445.214C806.656 445.069 807.309 444.912 807.958 444.739C804.813 453.547 805.446 463.215 809.542 471.792C812.006 476.952 815.764 481.416 820.34 484.939C825.384 488.819 831.642 491.952 835.141 497.399C838.347 502.39 837.395 507.998 831.908 510.88C830.525 511.611 829.993 513.971 831.363 515.008C831.888 515.4 832.412 515.801 832.948 516.193C836.02 518.451 844.459 522.693 845.826 522.85C857.962 524.252 866.123 515.573 871.353 505.335C877.493 493.319 875.897 478.675 869.131 467.232C863.704 458.051 853.015 449.003 857.265 437.384C858.781 433.233 861.881 429.695 864.893 426.498C868.329 422.858 872.022 419.449 875.316 415.679C878.59 411.937 881.493 407.865 883.114 403.168C885.481 396.304 884.303 388.882 882.525 382.03C878.715 367.319 873.768 352.805 868.498 338.539Z" fill="black"/>
<path fill-rule="evenodd" clip-rule="evenodd" d="M800.778 415.336C798.062 414.259 795.639 412.462 793.867 410.168C793.251 409.37 793.091 408.528 793.22 407.757C793.366 406.891 793.893 406.106 794.612 405.579C795.334 405.051 796.236 404.79 797.109 404.923C797.867 405.038 798.621 405.442 799.219 406.278L799.343 406.446C800.397 407.831 801.769 408.967 803.333 409.7C804.841 410.406 806.527 410.735 808.272 410.543C811.594 410.179 813.885 408.432 816.319 406.06C816.621 405.761 816.923 405.452 817.226 405.138C817.418 404.854 817.683 404.671 817.979 404.575C818.306 404.469 818.677 404.475 819.017 404.59C819.344 404.701 819.637 404.911 819.834 405.192C820.02 405.458 820.126 405.787 820.092 406.165C819.869 408.623 818.547 410.817 816.669 412.539C814.583 414.452 811.818 415.776 809.215 416.24C806.347 416.751 803.424 416.385 800.778 415.336ZM810.567 377.417C813.619 379.22 818.268 383.423 814.985 387.892C811.122 391.832 805.559 387.314 802.818 385.271C800.276 383.687 797.42 387.76 799.778 389.609C819.586 403.862 827.625 377.889 812.111 375.298C810.403 375.013 809.768 376.86 810.567 377.417ZM775.071 360.838C775.409 356.771 781.781 355.847 782.415 359.872C782.983 363.476 782.315 366.788 780.644 370.034C779.048 373.134 775.035 371.688 774.732 368.864C774.325 365.08 774.862 363.367 775.071 360.838ZM823.583 359.037C824.472 357.906 825.754 357.134 827.291 357.57C832.094 358.934 830.678 365.56 828.992 368.785C828.075 370.537 825.113 370.981 823.775 369.439C821.593 366.924 820.548 361.902 823.322 359.425C823.397 359.297 823.48 359.167 823.583 359.037ZM780.576 343.042L781.335 342.913C783.682 342.519 786.599 342.14 788.259 343.973C789.14 344.946 789.443 346.753 788.259 347.684C786.178 349.321 783.876 348.687 781.382 348.825C779.326 348.94 777.35 349.27 775.37 349.821C771.026 351.027 767.486 353.23 763.775 355.649C763.288 355.967 762.791 355.362 763.024 354.919C765.166 350.842 769.316 347.492 773.474 345.451C775.693 344.361 778.121 343.457 780.576 343.042ZM819.205 341.216L819.786 341.331C826.104 342.615 834.313 345.179 837.305 351.21C837.419 352.063 837.299 352.246 837.201 352.366L837.168 352.405C837.087 352.507 837.023 352.648 836.643 352.764C836.537 352.74 836.43 352.714 836.323 352.686C834.951 352.337 833.866 351.856 832.816 351.356L831.677 350.811C830.355 350.181 829.022 349.574 827.609 349.126C824.594 348.171 821.493 347.497 818.344 347.138C817.661 347.06 817.004 346.836 816.485 346.452C815.993 346.088 815.617 345.584 815.446 344.914C815.223 344.046 815.287 343.389 815.766 342.607C816.126 342.019 816.641 341.612 817.233 341.378C817.836 341.139 818.523 341.083 819.205 341.216Z" fill="black"/>
<path fill-rule="evenodd" clip-rule="evenodd" d="M846.729 379.81C841.823 384.736 833.634 386.15 827.107 383.508C810.349 376.703 818.552 355.478 831.476 349.778C833.091 349.387 835.247 348.459 837.214 348.248C837.391 348.164 837.778 348.409 838.247 348.177C852.499 349.723 855.744 371.224 846.729 379.81ZM792.676 381.071C787.174 388.163 776.945 390.351 768.588 387.054C752.077 380.735 757.933 361.914 769.229 354.535C793.091 345.821 802.945 367.994 792.676 381.071ZM756.885 365.356C756.87 365.349 756.854 365.346 756.838 365.339C756.926 365.301 757.013 365.264 757.1 365.226C757.072 365.298 757.041 365.369 757.013 365.441C756.971 365.412 756.933 365.379 756.885 365.356ZM858.087 357.69C856.74 357.692 854.794 357.908 853.679 358.816C850.929 349.802 840.779 341.46 831.951 347.543C824.999 349.716 819.841 354.535 816.909 360.941C811.623 357.885 803.311 359.19 798.727 363.231C795.725 353.59 788.336 350.214 779.542 349.716C769.943 348.188 760.376 357.248 757.391 364.516C754.909 364.241 751.2 363.474 748.865 364.962C733.711 361.1 707.215 358.97 704.134 361.116C701.939 361.935 700.734 366.972 703.801 367.243C706.473 366.875 703.489 363.553 706.182 363.19C720.536 362.326 734.469 365.135 748.67 366.314C749.938 367.971 754.035 368.526 756.22 367.86C752.778 380.189 760.209 388.577 771.342 391.089C788.582 394.938 803.581 379.95 799.073 364.36C804.295 361.835 810.302 361.943 815.991 363.273C806.484 397.277 862.832 395.751 854.031 359.981C859.888 362.812 861.16 358.261 858.087 357.69Z" fill="black"/>
<path fill-rule="evenodd" clip-rule="evenodd" d="M396 616.06C392.257 617.744 389.057 620.607 386.805 624.283C384.554 627.959 383.353 632.284 383.355 636.708V702H323V636.268C323.001 630.362 325.148 624.699 328.969 620.523C332.79 616.348 337.973 614.001 343.376 614H396V616.06Z" fill="black"/>
<path fill-rule="evenodd" clip-rule="evenodd" d="M387.575 626.468C384.146 633.693 385.101 634.911 385.395 656.948C385.424 660.729 385.598 701.897 385.323 703.063C385.178 703.549 384.914 703.981 384.56 704.311C383.357 705.257 388.593 704.954 323.499 704.954C322.907 704.949 322.336 704.713 321.887 704.288C321.437 703.864 321.137 703.277 321.041 702.632C320.997 702.032 320.966 636.479 321.069 634.803C321.409 630.204 322.901 625.801 325.378 622.086C327.855 618.371 331.218 615.491 335.092 613.768C340.775 611.36 341.668 611.991 370.548 612.355C397.673 612.783 395.583 612.656 396.226 613C396.468 613.155 396.667 613.38 396.803 613.65C396.94 613.92 397.007 614.225 396.999 614.534C396.975 616.861 396.986 616.461 396.958 616.873C396.913 617.158 396.805 617.427 396.642 617.654C396.479 617.88 396.267 618.058 396.025 618.171L396.005 618.144C392.473 619.87 389.522 622.782 387.575 626.468ZM369.305 616.288V616.716L343.567 617.046C339.5 617.101 335.574 618.693 332.441 621.558C329.308 624.422 327.158 628.386 326.348 632.79C325.899 635.439 325.986 629.926 325.986 699.439H380.476C380.476 635.634 380.448 632.912 382.703 627.809C384.678 622.893 388.07 618.837 392.35 616.276L369.305 616.288Z" fill="black"/>
<path fill-rule="evenodd" clip-rule="evenodd" d="M534.691 143.904C549.73 150.721 563.138 161.282 573.868 174.762C584.598 188.242 592.361 204.276 596.549 221.613C601.15 238.487 602.201 256.298 599.623 273.688C597.044 291.078 590.904 307.59 581.67 321.966C572.154 336.821 559.563 348.957 544.944 357.364C537.727 361.579 530.09 364.856 522.188 367.127C507.842 371.284 492.869 372.106 478.22 369.538C463.571 366.971 449.565 361.071 437.092 352.213C359.011 294.411 379.354 170.244 460.866 140.97C484.991 132.101 511.206 133.143 534.691 143.904ZM478.193 145.526C462.053 148.613 446.863 156.088 433.995 167.275C421.128 178.463 410.987 193.011 404.49 209.606C397.992 226.201 395.342 244.321 396.779 262.329C398.215 280.337 403.693 297.667 412.718 312.754C421.743 327.841 434.031 340.21 448.472 348.745C462.913 357.279 479.053 361.71 495.434 361.637C511.815 361.564 527.922 356.99 542.3 348.328C556.678 339.666 568.876 327.188 577.79 312.022C585.723 298.884 591.013 284.024 593.305 268.44C595.598 252.857 594.838 236.913 591.079 221.681L591.037 221.695C575.981 167.694 526.31 135.445 478.193 145.526ZM596.536 221.615C596.07 219.949 596.111 220.08 596.536 221.615V221.615Z" fill="#010101"/>
<path fill-rule="evenodd" clip-rule="evenodd" d="M490.703 208.517C491.402 214.62 493.607 244.907 493.688 246.187C493.908 249.22 494.243 255.23 494.245 255.249C500.694 255.78 516.908 254.82 526.991 254.875C529.786 254.896 529.096 254.793 530.496 255.415L531 256.587V256.604L530.562 257.804C528.825 258.717 530.805 258.133 522.472 259.094C510.954 260.422 503.007 261.56 492.216 260.703C491.707 260.754 491.194 260.648 490.736 260.398C490.278 260.148 489.892 259.763 489.623 259.286C489.231 258.417 489.316 258.69 489.08 254.21C487.682 227.859 485.474 217.939 486.114 197.749C486.16 196.503 486.037 197.084 486.617 195.552L487.636 195H487.647C489.566 195.819 489.027 194.568 490.703 208.517Z" fill="#010101"/>
<path fill-rule="evenodd" clip-rule="evenodd" d="M421.458 253.001C422.546 253.15 423.622 253.382 424.678 253.695C425.324 253.868 424.918 253.695 426.433 254.494L427 255.45C426.402 256.7 426.776 256.284 425.319 257.241C424.181 257.703 423.011 258.069 421.819 258.337C420.98 258.485 420.13 258.545 419.28 258.517C412.541 258.819 413.625 259.367 411.633 258.637C410.625 258.288 411.295 258.666 409 257.062C410.477 254.737 410.056 255.238 410.909 254.539C411.459 254.081 412.091 253.747 412.767 253.556C415.65 253.173 418.553 252.988 421.458 253.001Z" fill="#010101"/>
<path fill-rule="evenodd" clip-rule="evenodd" d="M576.004 247.087C576.734 247.046 577.464 247.15 578.166 247.393C578.333 247.441 579.168 247.744 579.265 247.788C580.692 248.4 579.975 247.844 582 249.978C580.237 252.226 580.768 251.819 579.324 252.438C577.23 253.443 574.715 252.744 571.012 252.981C570.402 253.056 569.789 252.864 569.287 252.441C568.488 251.979 569.111 252.466 567 250.628C568.446 248.185 568.122 248.629 568.782 248.022C569.312 247.419 570.01 247.076 570.739 247.061C572.635 246.952 573.981 247.008 576.004 247.087Z" fill="#010101"/>
<path fill-rule="evenodd" clip-rule="evenodd" d="M487.479 157.54C488 158.281 488.437 159.071 488.784 159.898C489 161.036 489.153 162.183 489.24 163.336C489.855 168.898 490.732 171.716 488.911 176.282L487.938 177H487.904L486.788 176.521L485.837 175.185C485.221 173.815 484.696 172.41 484.264 170.978C484.009 169.899 483.091 162.045 483.091 161.77C482.906 160.852 483.004 159.904 483.372 159.036C484.19 157.36 483.022 158.765 485.498 156L487.479 157.54Z" fill="#010101"/>
<path fill-rule="evenodd" clip-rule="evenodd" d="M496.254 348.965C495.25 347.098 494.683 344.989 494.601 342.826C493.798 337.215 493.909 338.444 494.301 336.822C494.823 335.486 494.462 336.202 496.004 334C497.019 334.658 497.891 335.551 498.558 336.615C499.053 337.41 498.94 337.262 499.26 339.483C499.987 345.006 500.246 345.146 499.73 348.026C499.53 349.141 499.73 348.637 498.227 351C496.128 349.086 496.495 349.5 496.254 348.965Z" fill="#010101"/>
<path fill-rule="evenodd" clip-rule="evenodd" d="M492.864 447.236C493.224 447.305 493.551 447.513 493.786 447.822C494.022 448.131 494.151 448.522 494.151 448.926C495.223 563.805 495.341 558.965 494.151 560.271C493.715 560.68 493.162 560.905 492.591 560.908C486.978 560.935 386.857 561.15 385.671 560.812C385.122 560.586 384.659 560.161 384.36 559.605C383.853 558.381 384.03 566.285 384.03 448.934C384.032 448.288 384.238 447.663 384.614 447.169C384.99 446.674 385.511 446.341 386.086 446.227C394.746 445.37 492.615 447.212 492.864 447.236ZM389.022 451.693V555.464C444.079 555.464 306.299 555.534 490.179 555.546C490.426 555.686 489.975 559.877 491.033 450.66C433.013 451.85 435.111 451.693 389.022 451.693Z" fill="black"/>
<path fill-rule="evenodd" clip-rule="evenodd" d="M525.503 629.63C527.866 630.487 526.264 629.566 528.488 630.926L529 631.983V632.001L528.435 633.023L527.134 633.723C520.614 635.111 525.977 634.569 514.684 634.889C513.391 635.131 512.06 634.975 510.847 634.44C509.329 633.701 510.097 634.329 508 632.185C509.995 629.967 509.298 630.576 510.75 629.807C511.932 629.214 513.248 628.989 514.546 629.159C523.035 628.93 522.142 628.846 525.503 629.63Z" fill="black"/>
<path fill-rule="evenodd" clip-rule="evenodd" d="M500.274 668.044C501.14 667.926 502.019 668.044 502.833 668.388C508.895 671.724 514.721 675.549 520.261 679.83C525.109 683.416 526.275 683.704 525.949 686.218C525.822 686.849 525.497 687.412 525.03 687.809C524.27 688.351 524.141 688.351 522.624 688.564C513.169 689.906 503.859 687.818 494.209 686.767C474.406 684.675 461.969 680.643 445.877 678.103C440.769 677.275 440.676 677.157 438.257 676.614L437.244 675.844L437 674.551C437.016 674.522 437.677 673.478 437.695 673.449L438.779 673.207L438.819 673.173C447.568 671.236 456.426 669.942 465.333 669.299C474.257 668.575 492.176 668.023 500.274 668.044ZM499.386 673.674C484.747 673.708 469.655 674.658 461.733 675.001C453.924 675.348 454.608 675.147 457.467 675.619C462.575 676.471 473.338 678.283 479.808 679.222C479.808 679.496 509.607 683.302 515.832 683.37C511.239 679.952 506.472 676.82 501.553 673.989C500.909 673.628 501.285 673.67 499.386 673.674ZM500.07 673.113L500.101 673.127L500.061 673.091L500.07 673.113Z" fill="black"/>
<path fill-rule="evenodd" clip-rule="evenodd" d="M482.574 637.008C488.029 636.95 493.482 637.211 498.899 637.789C501.894 638.051 501.044 637.875 502.512 638.473L503 639.41V639.424L502.512 640.361L501.338 640.83C500.283 640.83 496.503 641.375 488.249 641.557C483.302 641.672 485.278 641.244 467.184 641.838C462.537 642.256 457.844 641.863 453.367 640.682L452.343 640.063L452 639.145V639.129L452.576 638.311C455.97 637.174 479.145 636.996 482.574 637.008Z" fill="black"/>
<path fill-rule="evenodd" clip-rule="evenodd" d="M399.543 658.003C401.019 658.054 402.238 658.349 407.274 658.494C414.71 658.665 416.789 658.16 421.098 658.356C428.046 658.7 426.924 658.587 428.435 659.203L429 660.24V660.258L428.568 661.368L427.416 662.042C420.952 663.675 414.3 664.291 407.669 663.873C398.701 663.674 397.424 662.936 394.47 661.565C394.146 661.419 394.357 661.565 393.278 660.595L393 659.536C393.015 659.508 393.598 658.672 393.615 658.647L394.798 658.22C395.067 658.197 398.949 657.973 399.543 658.003Z" fill="black"/>
<path fill-rule="evenodd" clip-rule="evenodd" d="M939.397 695.492L940 696.627V696.645L939.416 697.798L938.006 698.302L923.619 699.393L860.802 700.339L827.968 700.793L796.462 701.183L756.47 701.571L709.309 702.025L603.91 703.051L501.01 704.054L456.979 704.483L421.344 704.83L405.085 704.923L387.484 704.977L352.114 705L308.558 704.934H307.57L306.477 704.46L306 703.337V703.319L306.453 702.184L307.546 701.689L308.543 701.667L352.087 700.741L387.449 700.06L405.048 699.772L421.32 699.545L456.942 699.198L500.972 698.769L603.864 697.768L709.272 696.743L756.424 696.289L796.416 695.899L827.931 695.672L860.765 695.483L923.584 695.206L937.971 695L939.397 695.492Z" fill="black"/>
<path fill-rule="evenodd" clip-rule="evenodd" d="M336.008 630C351.514 630.374 352.427 630.396 358.487 632.005C359.24 632.12 359.956 632.487 360.562 633.068L361 634.386V634.408L360.437 635.648C359.786 636.138 359.044 636.397 358.288 636.399C354.126 637.039 349.926 637.168 345.745 636.784C341.786 636.889 337.825 636.702 333.882 636.226C330.333 635.187 330.585 635.157 329.438 634.272L329 633.105V633.085L329.475 631.94L330.587 631.145C332.346 630.456 334.169 630.071 336.008 630Z" fill="white"/>
<path fill-rule="evenodd" clip-rule="evenodd" d="M374.936 660.24C380.002 660.565 378.681 660.291 380.443 660.912L381 661.805V661.82L380.522 662.748L379.326 663.257C366.899 664.758 369.701 664.315 346.565 664.903C342.908 665.133 339.232 664.953 335.628 664.367L334.5 663.895L334 663.064V663.049L334.421 662.184L335.504 661.638C336.385 661.521 336.482 661.389 339.592 660.916C341.845 660.566 344.132 660.41 346.42 660.45C369.697 659.87 366.897 659.908 374.936 660.24Z" fill="white"/>
<path fill-rule="evenodd" clip-rule="evenodd" d="M376.512 687.332C377.817 688.403 377.495 687.944 378 689.303C375.824 691.308 376.614 690.806 374.954 691.308C373.117 691.947 371.472 691.837 365.632 691.969C365.147 692.043 364.653 691.983 364.192 691.794C362.403 690.952 362.588 690.924 361 689.054C362.678 687.172 362.39 687.275 364.155 686.365C364.875 686.099 364.436 686.18 366.387 686.114C372.528 685.977 372.954 685.673 376.512 687.332Z" fill="white"/>
<path d="M441 462C447.627 462 453 455.956 453 448.5C453 441.044 447.627 435 441 435C434.373 435 429 441.044 429 448.5C429 455.956 434.373 462 441 462Z" fill="#FDEA6B"/>
<path fill-rule="evenodd" clip-rule="evenodd" d="M442.802 434.029C445.205 434.107 447.545 434.865 449.585 436.224C451.626 437.583 453.293 439.496 454.418 441.767C455.542 444.039 456.085 446.588 455.989 449.156C455.894 451.725 455.164 454.22 453.874 456.389C452.625 458.653 450.856 460.539 448.736 461.87C446.616 463.201 444.213 463.932 441.755 463.996C439.297 464.059 436.865 463.451 434.687 462.231C432.509 461.011 430.658 459.217 429.308 457.02C428.059 455.007 427.29 452.697 427.067 450.293C426.845 447.888 427.176 445.462 428.032 443.226C428.889 440.99 430.244 439.012 431.979 437.464C433.715 435.917 435.778 434.847 437.99 434.348C439.578 434.05 441.192 433.943 442.802 434.029ZM441.417 437.413C438.962 437.574 436.645 438.683 434.898 440.535C433.151 442.386 432.092 444.854 431.92 447.477C431.92 459.491 444.674 462.295 449.664 453.437C449.96 452.865 450.204 452.264 450.391 451.641C450.792 450.069 450.872 448.422 450.624 446.814C450.377 445.205 449.809 443.672 448.957 442.32C448.106 440.967 446.993 439.827 445.692 438.975C444.392 438.124 442.935 437.583 441.421 437.388L441.417 437.413ZM441.536 434.075H441.586H441.536Z" fill="black"/>
<path fill-rule="evenodd" clip-rule="evenodd" d="M481.575 612.018C486.018 612.053 490.352 613.541 494.034 616.297C497.119 618.589 499.635 621.706 501.35 625.359C504.646 632.783 503.935 635.112 503.935 658.101C503.892 672.813 504.007 671.491 503.586 672.522C503.314 673.062 502.883 673.481 502.366 673.711C501.848 673.94 501.275 673.965 500.743 673.782C499.776 673.344 500.209 673.409 499.603 673.4C490.534 673.313 472.604 673.765 455.311 675.097C465.672 677.202 472.972 678.719 481.614 680.19C500.905 683.396 502.808 681.983 503.008 684.738H502.977C503.194 704.118 503.251 702.202 503.097 702.911C502.966 703.346 502.701 703.715 502.349 703.954C502.102 704.089 506.25 705 383.486 705C382.903 705.001 382.338 704.774 381.89 704.358C381.443 703.943 381.142 703.366 381.041 702.729C381.011 702.248 380.95 637.002 381.08 634.961C381.503 629.242 383.687 623.858 387.266 619.714C390.845 615.57 395.601 612.917 400.735 612.201C403.037 611.918 481.328 612.016 481.575 612.018ZM467.779 617.516C401.277 617.516 401.749 616.794 396.901 618.958C394.585 620.007 392.497 621.592 390.778 623.607C389.058 625.623 387.747 628.022 386.93 630.644C385.584 634.449 385.972 633.819 385.972 699.517C448.501 699.517 438.329 699.383 499.674 700.274L499.704 700.315V686.249C486.095 684.516 488.8 685.646 456.829 679.781C449.025 678.363 440.964 677.726 438.331 676.866C437.89 676.674 437.522 676.321 437.287 675.865C437.053 675.409 436.967 674.878 437.043 674.36C437.119 673.841 437.353 673.368 437.705 673.018C438.058 672.668 438.508 672.462 438.981 672.436C439.233 672.421 460.988 668.215 498.857 668.035C499.124 668.035 498.965 670.376 498.965 636.62C498.881 632.351 497.538 628.231 495.143 624.889C492.747 621.546 489.431 619.166 485.7 618.112C482.871 617.285 481.209 617.516 467.779 617.516ZM499.145 672.871L499.165 672.885L499.134 672.854L499.145 672.871Z" fill="black"/>
<path fill-rule="evenodd" clip-rule="evenodd" d="M688.999 244.933C688.861 244.64 688.74 244.334 688.636 244.017C688.208 241.922 687.994 239.759 688 237.587C688.098 237.27 688.226 236.971 688.38 236.696H688.39C688.529 236.45 688.68 236.218 688.843 236C692.208 236.246 691.404 236 692.019 236.816C692.093 236.963 692.174 237.102 692.263 237.234C692.308 237.336 692.342 237.399 692.391 237.496C692.506 239.201 692.708 240.893 692.998 242.561C693.036 244.49 692.627 246.389 691.827 248C689.907 246.481 690.063 246.8 688.999 244.933Z" fill="white"/>
</svg>
