<svg width="1291" height="915" viewBox="0 0 1291 915" fill="none" xmlns="http://www.w3.org/2000/svg">
<rect width="1291" height="915" fill="white"/>
<path fill-rule="evenodd" clip-rule="evenodd" d="M649.15 318.689C645.336 322.802 641.268 326.642 637.091 330.336C632.968 333.981 629 337.92 624.637 341.247C623.623 342.024 622.559 340.356 623.355 339.474C627.104 335.314 631.404 331.69 635.403 327.817C639.375 323.957 643.534 320.317 647.861 316.911C648.868 316.122 649.964 317.811 649.15 318.689ZM614 260.767C606.325 263.719 598.517 266.383 590.615 268.579C582.658 270.79 574.451 271.852 566.699 274.043C566.469 274.126 566.273 274.292 566.148 274.513C566.022 274.733 565.974 274.994 566.013 275.248C566.052 275.503 566.174 275.734 566.359 275.902C566.543 276.07 566.778 276.163 567.021 276.165C575.205 276.404 583.728 274.184 591.601 272.025C599.643 269.823 607.475 266.836 614.997 263.105C616.242 262.481 615.295 260.269 614 260.767ZM620.975 205.999C615.544 202.746 609.947 199.815 604.209 197.221C598.309 194.402 592.62 192.239 586.708 189.662C585.704 189.225 584.9 190.995 585.886 191.513C591.542 194.488 596.776 197.572 602.593 200.388C608.275 203.285 614.106 205.845 620.057 208.056C620.306 208.133 620.573 208.114 620.809 208.002C621.046 207.889 621.237 207.691 621.348 207.443C621.458 207.195 621.482 206.913 621.413 206.648C621.345 206.383 621.19 206.153 620.975 205.999ZM661.016 223.388C661.396 221.799 659.24 221.127 658.526 222.465C655.747 227.646 654.811 233.946 654.587 239.822C654.369 245.515 654.698 252.186 657.469 257.217C658.046 258.265 659.821 257.651 659.566 256.498C658.291 251.077 657.771 245.487 658.024 239.907C658.218 234.205 659.691 228.87 661.016 223.388ZM669.35 201.896C666.592 203.846 662.502 210.325 661.884 214.128C661.791 214.481 661.826 214.858 661.982 215.184C662.139 215.511 662.405 215.764 662.729 215.892C663.053 216.021 663.411 216.016 663.732 215.879C664.052 215.742 664.313 215.482 664.461 215.151C666.122 211.198 668.215 207.464 670.698 204.027C671.914 202.472 670.393 201.163 669.35 201.896ZM667.331 296.325C659.737 289.576 653.67 281.109 649.579 271.55C645.488 261.99 643.477 251.58 643.694 241.088C644.003 230.431 646.55 219.981 651.149 210.495C655.748 201.009 662.284 192.724 670.283 186.243C670.519 186.046 670.673 185.76 670.715 185.445C670.757 185.131 670.683 184.811 670.508 184.552C670.334 184.294 669.777 184.056 669.777 184.056C669.777 184.056 669.177 184.058 668.924 184.23C659.983 191.006 652.716 199.963 647.74 210.342C642.764 220.72 640.225 232.215 640.337 243.852C640.662 270.482 653.184 290.141 672.816 305.069C683.595 313.27 695.896 321.923 698.648 336.696C698.891 338 700.771 337.91 700.644 336.522C698.883 317.194 679.819 307.403 667.331 296.325ZM821.675 220.004C821.122 218.825 819.653 220.958 819.653 220.958C819.653 220.958 823.903 236.108 823.759 244.008C823.615 251.908 821.932 259.692 818.815 266.873C811.07 284.235 796.653 290.663 785.625 304.202C780.07 311.022 775.48 319.635 776.286 328.937C776.303 329.221 776.423 329.488 776.621 329.682C776.819 329.876 777.08 329.982 777.349 329.977C777.619 329.973 777.877 329.858 778.069 329.658C778.261 329.458 778.373 329.187 778.381 328.902C778.916 317.81 784.595 309.557 791.635 302.322C802.741 290.898 814.688 283.891 821.595 268.184C828.239 253.075 828.727 235.06 821.675 220.004ZM832.621 320.989C827.549 317.831 820.937 313.411 815.603 311.147C814.406 310.638 813.905 312.412 814.735 313.137C819.159 316.998 826.028 321.029 831.073 324.233C836.63 327.761 842.167 331.324 847.97 334.389C848.269 334.575 848.625 334.63 848.962 334.543C849.299 334.456 849.591 334.234 849.776 333.924C849.961 333.613 850.024 333.238 849.953 332.879C849.881 332.52 849.68 332.204 849.393 331.999C843.993 328.009 838.296 324.519 832.621 320.992V320.989ZM893.119 249.298C886.47 248.6 879.789 248.293 873.107 248.378C866.346 248.262 859.587 248.199 852.827 248.394C851.656 248.427 851.559 250.513 852.745 250.603C859.404 251.106 866.075 251.362 872.75 251.561C879.508 251.967 886.281 251.977 893.04 251.59C893.299 251.556 893.537 251.425 893.712 251.221C893.888 251.018 893.99 250.755 893.999 250.48C894.009 250.204 893.925 249.934 893.764 249.718C893.603 249.501 893.374 249.353 893.119 249.298ZM857.879 191.861C863.508 190.2 869 188.057 874.301 185.454C879.668 182.974 884.776 179.906 889.539 176.299C890.736 175.329 889.366 173.462 888.097 174.083C882.897 176.626 877.978 179.773 872.803 182.373C867.846 184.862 862.249 187.757 857.224 189.942C857.025 190.063 856.872 190.254 856.793 190.483C856.714 190.711 856.714 190.961 856.792 191.19C856.87 191.418 857.022 191.61 857.221 191.732C857.42 191.854 857.653 191.897 857.879 191.855V191.861Z" fill="#1769FF"/>
<path d="M713.905 402.615C700.651 385.558 706.758 359.127 695.198 341.448C712.721 347.85 754.379 350.957 780.711 334.457C772.362 364.549 778.291 377.397 769.37 395.817C760.434 414.266 729.111 422.184 713.905 402.615Z" fill="black"/>
<path d="M751.264 229.544C753.204 222.124 756.443 219.242 763.72 222.499C769.498 225.152 774.619 229.182 778.683 234.274C784.254 241.235 787.409 250.533 781.491 258.296C774.933 266.897 757.515 273.1 747.75 275.16C747.274 293.045 749.086 310.916 753.135 328.288C753.564 330.124 750.928 330.95 750.471 329.116C746.213 311.684 744.301 293.702 744.793 275.704C737.171 277.034 729.422 277.359 721.725 276.669C723.494 285.505 724.926 294.448 725.987 303.409C727.288 313.798 727.835 324.278 727.626 334.756C727.621 335.018 727.521 335.267 727.346 335.453C727.172 335.638 726.937 335.745 726.69 335.752C726.443 335.758 726.203 335.664 726.02 335.488C725.837 335.312 725.725 335.068 725.708 334.807C724.96 324.681 724.223 314.196 723.032 304.148C721.92 294.749 720.388 285.573 718.476 276.33C709.456 275.21 700.652 272.63 692.372 268.68C685.759 265.516 683.938 261.695 687.108 254.432C689.337 249.315 695.742 237.007 699.61 233.931C703.202 231.074 707.401 231.592 710.041 235.564C714.074 241.622 719.478 265.902 721.074 273.474C729.026 274.247 737.04 273.893 744.904 272.423C745.484 257.921 747.618 243.536 751.264 229.544Z" fill="black"/>
<path fill-rule="evenodd" clip-rule="evenodd" d="M760.923 783.318C753.481 772.741 737.793 770.99 727.714 763.578C722.405 759.512 716.787 756.822 712.661 751.348C719.23 743.639 711.106 725.569 709.434 715.133C702.81 687.812 696.682 660.054 688.803 632.765C702.458 637.01 698.9 611.59 696.95 605.712C696.815 604.904 695.813 604.742 695.199 604.488C695.371 603.334 695.844 603.08 694.409 602.762C693.93 595.845 695.889 588.101 692.348 581.991C688.357 575.322 678.817 569.741 670.934 569.649C665.397 547.687 664.382 537.328 638.149 546.638C638.729 544.499 638.909 542.537 637.898 540.376C633.954 528.47 628.996 515.445 624.685 503.38C619.716 489.496 614.579 475.139 607.934 461.798C603.305 453.326 588.826 451.062 579.012 452.464C576.671 448.339 570.77 436.928 563.305 439.566C563.249 436.125 563.195 432.683 563.15 429.241C563.112 426.25 563.427 423.182 562.275 420.341C561.055 417.332 558.571 415.744 555.653 414.593C546.821 411.679 536.675 406.998 527.355 409.894C519.212 413.606 520.161 427.563 516.22 435.15C510.698 426.972 501.281 432.455 499.289 441.226C476.604 450.257 457.106 439.997 455.654 475.449C456.905 481.912 457.968 487.974 457.375 494.499L456.689 494.57C450.883 525.982 448.65 559.655 450.054 594.66C449.773 608.443 444.744 621.308 439.88 633.746C436.303 642.891 432.61 652.348 430.859 662.051C428.917 670.132 421.78 708.993 437.65 696.091C438.258 740.303 477.704 745.963 513.226 736.198C550.935 728.368 593.386 730.619 616.921 692.74C624.905 706.386 627.659 714.811 629.663 729.081C631.863 739.534 635.056 751.406 640.927 758.32C635.872 767.408 633.396 778.478 633.64 785.693C633.736 788.527 632.438 789.84 634.304 791.601C643.251 800.052 663.214 800.147 678.394 803.91C688.803 805.233 726.44 810.295 732.192 806.995C736.203 808.115 731.538 797.689 735.549 797.467C736.922 797.477 737.105 795.731 738.514 795.795C747.511 796.205 766.908 798.846 762.218 791.601L760.923 783.318Z" fill="#E8B18B"/>
<path fill-rule="evenodd" clip-rule="evenodd" d="M721.714 808.872C698.934 808.009 667.39 801.61 645.203 796.802C639.442 795.721 635.344 792.714 634.145 790.162C633.601 789.004 633.775 786.917 634.299 784.48C634.721 782.524 633.477 780.343 633.707 778.238C634.033 775.253 636.068 770.376 637.122 768.594C639.214 765.052 640.647 756.012 640.802 756.107C643.586 757.803 646.742 758.54 649.991 759.448C650.033 759.46 650.827 761.475 650.869 761.487C650.883 761.527 650.898 761.568 650.912 761.608C651.777 764.013 652.952 765.034 654.349 766.28C655.875 767.643 657.664 767.621 659.588 767.866C664.363 768.475 667.447 766.118 671.977 762.986L672.313 762.977C672.816 762.965 673.336 762.966 673.863 762.967C676.519 762.972 679.398 763 681.453 761.332C681.508 761.287 681.562 761.242 681.615 761.196C681.665 761.243 681.716 761.289 681.77 761.333C681.87 761.415 681.974 761.488 682.082 761.553C682.538 761.283 682.986 761.011 683.431 760.74C684.938 759.824 689.068 757.514 689.105 757.577C690.35 759.68 710.673 747.855 712.436 749.527C714.694 751.667 719.814 759.817 727.379 763.334C740.772 769.559 750.05 774.066 757.071 779.324C764.092 784.583 760.392 787.792 761.083 788.088C762.838 788.84 762.173 794.292 762.086 795.1C762.01 795.814 752.31 797.022 746.288 796.852C739.464 796.66 736.192 795.079 735.577 796C733.12 799.348 734.753 806.618 734.753 806.618C734.753 806.618 729.237 810.374 721.714 808.872Z" fill="white"/>
<path fill-rule="evenodd" clip-rule="evenodd" d="M525.708 598.09L527.62 598.858C534.646 601.656 542.359 602.796 553.858 603.264L567.968 603.817C575.496 604.106 581.025 604.301 586.554 604.466L588.35 604.519L591.135 604.597L592.064 604.636L592.596 605.398C593.53 606.733 595.321 607.804 597.919 608.622L598.193 608.707C600.211 609.317 602.455 609.73 605.638 610.15L605.851 610.178L608.445 610.508L608.99 610.579L609.404 610.636C609.579 610.66 609.744 610.684 609.902 610.708L610.136 610.743L610.152 610.725C610.185 610.685 610.216 610.639 610.241 610.592L610.264 610.544L610.279 610.507C610.929 608.64 611.613 606.741 612.336 604.788L612.554 604.201C612.554 604.201 612.441 603.227 613.136 603.043C614.592 602.658 619.008 603.496 619.008 603.496C621.982 604.037 625.126 603.588 629.129 604.277L633.87 605.089L642.784 606.611L647.824 607.489L648.288 607.571L648.525 607.757L648.607 607.786L648.7 607.816C648.734 607.827 648.77 607.838 648.808 607.849L648.93 607.885C649.281 607.986 649.752 608.105 650.377 608.251L651.073 608.41C652.182 608.658 654.75 609.228 655.644 609.436L656.184 609.563L656.888 609.732C659.518 610.373 661.362 610.936 662.612 611.538L662.691 611.577L662.766 611.615L662.792 611.625C666.1 612.999 669.417 615.601 675.343 621.027L675.709 621.363L678.049 623.517C683.188 628.24 686.076 630.605 688.725 632.018L688.887 632.103L690.087 632.715L690.206 633.86L690.229 634.074L690.256 634.296C690.376 635.26 690.559 636.267 690.861 637.707L690.93 638.035L691.254 639.554L691.357 640.045L691.428 640.394C691.578 641.132 691.693 641.753 691.79 642.361L691.82 642.552L693.575 650.726C695.046 657.553 696.622 664.795 698.503 673.39L699.932 679.913L706.735 710.921L708.38 718.462L709.071 721.642L709.181 722.191L709.251 722.525C709.368 723.068 709.512 723.692 709.715 724.544L710.036 725.873L710.386 727.318L710.556 728.028L710.723 728.738C712.302 735.51 712.902 739.898 712.462 744.046C711.972 748.675 710.025 752.075 706.35 753.824L706.294 753.85L706.252 753.873L706.056 753.977C704.102 754.999 702.325 755.356 698.799 755.696L697.702 755.8L697.56 755.815L697.398 755.835C696.18 755.991 693.861 756.455 691.993 756.956L691.695 757.037L691.407 757.118C690.46 757.389 689.665 757.661 689.086 757.918C688.929 757.987 688.793 758.053 688.682 758.112L688.62 758.146L688.589 758.348L688.039 758.801C686.282 760.25 684.467 761.389 682.395 762.376L682.163 762.485L681.735 762.685L680.849 762.636L679.922 762.59C679.023 762.548 678.042 762.509 676.871 762.468L675.876 762.435L672.244 762.317L670.69 762.262L669.605 762.219C665.896 762.066 663.075 761.871 660.214 761.545C655.773 761.038 651.927 760.256 648.546 759.089L648.305 759.005L647.965 758.883C641.915 756.678 637.558 753.214 635.163 748.203L635.068 748.001L634.973 747.762L634.9 747.571C633.713 744.402 632.577 738.81 631.059 729.701L629.998 723.277L629.809 722.167C629.692 721.491 629.592 720.939 629.504 720.48C627.656 711.197 623.668 702.207 617.023 691.191C616.642 690.558 616.229 690.135 615.833 689.903L615.79 689.878L616.217 690.651L615.66 691.68C609.071 703.817 598.519 712.816 584.455 719.282C573.198 724.458 560.222 727.846 544.451 730.276L543.973 730.35L543.498 730.413C536.131 731.406 509.79 735.965 507.339 736.889L507.271 736.916L507.066 737.005L506.846 737.043C496.53 738.852 488.469 739.716 481.144 739.595L480.892 739.59C472.01 739.416 464.519 737.734 458.183 734.223C447.082 728.072 439.782 716.423 436.342 698.174L436.239 697.619L436.1 696.862L436.533 696.226C436.842 695.772 437.125 695.379 437.466 694.925L437.708 694.606L438.392 693.716L438.606 693.442C438.655 693.38 438.702 693.32 438.749 693.261L439.644 692.152C441.748 689.535 443.852 686.831 446.657 683.156L448.004 681.388L451.23 677.143C460.651 664.755 466.043 658.31 472.893 651.94L473.341 651.525L474.303 650.712C476.159 649.149 478.098 647.549 480.521 645.572L482.305 644.12L487.549 639.864L489.251 638.476C496.584 632.479 501.271 628.429 505.917 623.96L506.071 623.811C512.486 617.627 517.696 611.587 521.982 605.165L522.236 604.783L522.273 604.734C522.952 603.837 523.84 602.208 524.897 599.884L525.708 598.09ZM660.819 545.413L660.953 545.496L661.094 545.586L661.217 545.698C663.564 547.846 665.242 550.505 666.496 553.79L666.625 554.133L666.71 554.365C667.508 556.568 668.047 558.746 668.847 562.603L669.223 564.418L669.374 565.13C669.94 567.769 670.368 569.415 670.944 571.05L671 571.206L671.015 571.26C672.242 575.495 673.506 579.215 674.925 582.672L675.059 582.995L677.273 588.291L673.2 586.763C669.947 585.542 666.435 584.695 662.397 584.097L661.83 584.014L661.399 583.954C658.717 583.587 657.507 582.341 653.205 582.037L652.511 581.988L650.512 581.85L647.876 581.665L647.872 581.643L643.521 581.35L642.773 581.294L642.596 581.279C642.479 581.269 642.386 581.259 642.311 581.25C642.248 581.243 642.193 581.235 642.132 581.223L641.738 581.149L641.585 581.119C641.49 581.099 641.407 581.08 641.335 581.061L641.266 581.041L640.954 581.003C635.642 580.349 631.203 578.613 627.044 577.046L626.789 576.95L626.545 576.855L624.394 576.004L623.801 575.176C623.825 575.127 623.85 575.074 623.875 575.018C623.953 574.842 624.001 574.702 624.027 574.598L624.036 574.56L624.041 574.534L624.009 574.505C623.913 574.42 623.723 574.28 623.397 574.072L623.275 573.995L622.502 573.52L622.249 573.363L622.016 573.215C621.903 573.142 621.796 573.072 621.69 573.001L621.517 572.884L621.365 572.789C618.768 571.179 616.679 569.153 614.582 568.558L614.429 568.515L614.299 568.481L614.212 568.461C613.419 568.288 612.406 568.255 611.679 568.402L611.577 568.424L611.484 568.448C611.357 568.482 611.258 568.518 611.186 568.552L611.152 568.568L611.126 568.582L607.146 570.612C607.115 570.543 607.082 570.494 607.054 570.466L607.044 570.457L607.04 570.454L606.703 570.345C604.998 569.807 603.237 569.387 600.689 568.88L599.896 568.724L596.984 568.164L596.38 568.046C595.326 567.838 594.548 567.674 593.756 567.492L593.177 567.357L588.818 566.446L583.404 565.326L570.271 562.614L564.321 561.368L568.169 558.891L568.693 558.555C570.71 557.27 572.744 556.059 574.792 554.924L575.38 554.601L575.409 554.586C582.754 550.9 590.314 548.158 597.879 546.503C605.837 544.757 613.734 544.227 621.403 545.005L621.864 545.053L621.957 545.073C624.356 545.579 626.063 546.857 627.713 549.042L627.825 549.192L630.145 548.548C631.2 548.252 631.914 548.045 632.272 547.932L632.433 547.88L634.669 547.11C640.56 545.086 644.189 544.049 647.993 543.509C653.12 542.78 657.384 543.296 660.819 545.413Z" fill="#1769FF"/>
<path fill-rule="evenodd" clip-rule="evenodd" d="M625.275 574.354L624.468 575.976C620.769 583.429 609.981 609.897 609.981 609.897C609.981 609.897 597.416 607.325 595.233 606.204L595.143 606.157C595.143 606.157 599.093 590.88 601.35 585.015C603.997 578.135 608.603 571.177 608.886 570.434L609.549 568.683L610.705 568.564C610.784 568.556 610.863 568.549 610.942 568.544C611.702 568.496 613.81 568.213 617.267 569.697C619.416 570.62 625.275 574.354 625.275 574.354ZM534.398 555.718C530.135 562.979 511.273 528.808 516.943 525.361C522.612 521.914 538.661 548.456 534.398 555.718ZM611.021 529.701C602.887 531.979 594.381 492.761 602.63 490.436C610.879 488.11 619.154 527.422 611.021 529.701ZM456.662 485.856C456.662 485.856 473.965 523.416 468.448 526.421C462.931 529.426 454.254 496.023 454.254 496.023L456.662 485.856ZM527.627 469.33C528.328 469.723 527.697 474.989 526.971 475.199C526.789 475.251 522.069 473.422 519.101 474.838C514.963 476.814 511.778 482.108 507.315 481.098C502.754 480.067 500.748 470.612 500.057 468.542C499.799 467.769 502.424 465.501 502.802 464.822C502.967 464.526 505.803 468.483 510.575 469.33C516.72 470.42 525.319 468.033 527.627 469.33ZM588.285 466.619C588.626 466.682 591.429 470.256 591.32 472.585C591.209 474.945 588.182 476.059 587.806 475.896C587.806 475.896 575.598 478.85 574.866 478.648C574.543 478.559 573.453 477.017 573.516 475.089C573.591 472.789 574.905 469.997 575.589 469.262C576.904 467.851 587.573 466.488 588.285 466.619Z" fill="white"/>
<path fill-rule="evenodd" clip-rule="evenodd" d="M567.868 560.277C566.906 560.169 558.485 558.707 555.986 557.865C555.479 556.852 551.617 541.893 551.617 541.893C549.486 534.327 547.39 526.751 545.294 519.174C542.431 508.825 536.513 486.546 536.463 486.37C536.546 486.41 545.599 489.762 554.459 489.862C563.134 489.961 575.381 485.808 575.427 485.773C575.46 485.885 597.43 546.144 597.323 546.173C595.264 546.742 589.005 548.751 581.721 552.287C576.037 555.045 568.944 559.419 567.868 560.277Z" fill="white"/>
<path fill-rule="evenodd" clip-rule="evenodd" d="M758.69 793.557C752.057 794.988 745.235 794.589 738.515 795.148C738.732 794.586 738.914 794.011 739.056 793.426C746.001 792.586 753.283 792.187 759.904 789.895C760.06 790.641 760.177 791.395 760.224 792.156C760.23 792.258 760.216 793.397 760.379 793.186C760.177 793.447 758.991 793.5 758.69 793.557ZM725.179 776.362C713.062 772.384 700.209 768.954 690.895 759.687C699.512 756.565 705.714 760.544 713.12 752.553C713.402 752.613 713.675 752.697 713.941 752.802C721.895 766.32 738.841 768.895 751.251 776.728C756.282 779.653 765.652 787.532 753.664 787.708C748.932 788.425 744.173 788.955 739.401 789.322C739.033 781.71 731.487 778.375 725.179 776.362ZM733.618 795.857C731.218 799.128 726.884 800.42 722.963 800.1C720.079 799.709 717.535 798.695 714.535 798.914C691.798 798.051 669.44 793.345 647.267 788.541C627.407 784.818 642.584 770.168 640.927 758.317C643.73 760.025 646.908 761.271 650.178 762.187C654.393 773.909 665.911 770.849 674.07 765.233C682.051 765.867 683.433 763.178 689.959 760.063C696.975 772.623 712.681 775.423 725.102 780.195C732.65 782.227 738.831 788.056 733.618 795.857ZM733.205 806.333C726.824 808.239 720.072 807.908 713.488 807.372C691.86 805.499 670.375 801.815 649.393 796.243C644.416 794.921 634.762 793.386 634.304 787.145C638.734 792.95 646.641 793.634 653.285 795.131C675.091 799.402 697.428 804.917 719.73 803.854C724.44 805.193 729.573 804.136 733.558 801.528C733.432 803.129 733.317 804.731 733.205 806.333ZM665.108 764.675C660.304 766.682 655.825 766.188 651.919 762.639C656.38 763.727 660.644 764.175 665.108 764.675ZM637.041 746.591C634.887 741.222 632.69 725.122 631.614 719.508C629.488 708.831 624.598 699.035 618.869 689.535C607.127 670.07 591.857 651.851 589.561 629.852C589.604 628.563 589.652 627.274 589.677 625.985C589.728 623.304 589.973 620.397 589.466 617.764C589.449 617.677 589.333 617.696 589.307 617.764C588.301 620.401 587.993 623.532 587.605 626.33C587.246 628.918 586.951 631.497 586.93 634.114C586.911 636.6 587.072 639.13 587.644 641.556C587.667 641.654 587.691 641.751 587.714 641.849C587.377 642.816 587.008 643.773 586.603 644.714C585.644 646.942 584.576 649.132 583.503 651.307C581.324 655.723 579.131 660.133 576.926 664.537C574.678 669.024 572.441 673.516 570.145 677.979C569.43 679.369 568.758 680.781 568.105 682.203C562.425 690.805 556.248 699.078 549.574 706.935C543.776 713.198 538.613 720.689 530.754 724.486C522.953 728.449 514.44 730.936 506.441 734.406C474.973 739.91 446.268 739.94 438.355 696.679C439.15 695.732 439.874 694.72 440.591 693.837C444.488 689.026 448.225 684.089 451.968 679.161C459.032 669.863 466.161 660.498 474.777 652.558C492.125 637.852 511.253 624.731 524.001 605.448C525.205 603.86 526.19 602.135 526.85 600.277C535.393 603.68 545.018 604.489 554.143 604.847C566.405 605.328 578.672 605.834 590.939 606.162C594.377 611.074 605.034 611.508 610.097 612.331C611.135 612.444 612.003 611.533 612.311 610.649C613.164 608.202 614.049 605.771 614.959 603.35C625.772 605.377 636.635 607.117 647.472 609.028C648.202 609.636 648.492 610.469 648.772 611.514C649.201 613.122 649.615 614.734 650.051 616.341C650.878 619.39 651.808 622.417 652.664 625.461C653.141 627.157 653.559 628.935 654.119 630.653C663.51 670.473 676.75 714.634 686.263 752.065C686.575 753.449 686.849 755.255 686.613 756.757C684.938 758.058 683.174 759.116 681.28 759.999C667.915 759.065 643.76 760.984 637.041 746.591ZM543.671 727.688C539.792 728.186 535.845 728.835 531.866 729.556C535.346 727.999 538.616 726.048 541.262 723.233C560.186 704.13 575.543 681.254 585.458 656.244C586.811 652.882 588.181 649.481 589.346 646.03C589.557 646.349 589.793 646.653 590.058 646.936C594.648 662.053 605.083 675.841 613.806 690.108C600.157 715.251 570.131 723.657 543.671 727.688ZM436.232 698.73C436.317 698.667 436.404 698.607 436.487 698.541C436.495 698.66 436.506 698.775 436.514 698.893C436.42 698.838 436.326 698.785 436.232 698.73ZM503.533 467.474C504.726 471.045 505.942 474.612 507.828 477.879C510.915 475.878 513.479 473.122 516.687 471.327C520.001 469.473 523.364 469.974 526.586 471.784C527.431 472.259 526.672 473.556 525.827 473.082C524.199 472.167 522.408 471.432 520.502 471.603C519.013 471.737 517.671 472.424 516.446 473.242C513.5 475.209 511.01 477.745 507.954 479.572C507.599 479.785 507.135 479.646 506.925 479.302C504.743 475.749 503.396 471.807 502.083 467.873C501.775 466.952 503.229 466.561 503.533 467.474ZM533.519 553.563C534.322 554.096 533.568 555.397 532.76 554.86C523.669 548.823 523.133 536.821 517.757 528.196C517.243 527.372 518.546 526.619 519.056 527.438C524.237 535.75 524.79 547.765 533.519 553.563ZM564.905 490.897C566.826 490.394 571.066 489.891 573.27 488.443C578.569 506.587 585.781 524.12 593.283 541.456C593.8 542.637 594.261 544.202 594.991 545.442C591.312 546.459 587.952 547.635 585.259 548.822C581.903 550.29 578.62 552.015 575.508 554.002C572.777 555.597 570.168 557.375 567.704 559.341C566.949 559.184 566.196 559.026 565.441 558.866C562.889 558.315 560.303 557.727 557.813 556.888C557.176 555.328 556.968 553.495 556.427 551.957C555.486 548.584 554.546 545.209 553.606 541.836C548.563 523.935 543.718 505.976 538.603 488.095C546.68 491.834 556.259 492.355 564.905 490.897ZM574.879 475.695C575.571 472.777 576.983 469.176 580.553 469.283C583.288 469.366 585.906 470.968 588.384 472.173C588.268 471.29 587.645 470.537 587.087 469.783C586.51 469.004 587.817 468.256 588.386 469.025C589.409 470.407 590.27 471.742 589.762 473.498C589.615 474.007 589.099 474.138 588.657 473.947C586.244 472.903 583.809 471.28 581.18 470.85C577.988 470.328 576.929 473.566 576.329 476.094C576.106 477.036 574.655 476.635 574.879 475.695ZM621.562 546.601C624.852 547.297 626.419 550.247 628.071 552.881C632.181 559.429 636.123 566.082 639.907 572.823C640.933 574.649 641.946 576.481 642.946 578.322C643.217 578.775 643.456 579.266 643.701 579.749C637.605 579.206 631.585 578.309 625.845 576.071C627.048 573.349 625.004 572.883 622.713 571.301C620.258 569.766 617.662 568.356 614.844 567.612C613.231 567.187 609.523 567.094 609.087 569.232C608.883 568.654 608.454 568.146 607.807 567.9C603.226 566.395 598.359 565.839 593.667 564.723C585.736 563.054 577.793 561.449 569.859 559.792C571.996 558.431 574.175 557.139 576.394 555.926C583.357 552.432 590.756 549.687 598.356 548.024C605.969 546.353 613.786 545.77 621.562 546.601ZM604.061 493.002C606.227 504.282 608.018 515.645 610.994 526.752C611.245 527.689 609.793 528.085 609.543 527.152C606.567 516.044 604.777 504.682 602.61 493.402C602.429 492.456 603.879 492.054 604.061 493.002ZM659.833 546.736C666.548 552.891 666.107 563.205 668.993 571.308C670.215 575.525 671.606 579.697 673.317 583.743C673.354 583.833 673.391 583.923 673.429 584.013C665.36 581.109 656.761 580.708 648.205 580.102C648.14 579.814 648.045 579.549 647.922 579.331C646.548 576.692 645.056 574.105 643.616 571.498C639.79 564.688 635.78 557.982 631.61 551.374C631.349 550.963 631.088 550.54 630.823 550.117C639.637 547.237 652.079 541.834 659.833 546.736ZM691.516 586.077C692.316 589.856 691.802 593.829 691.586 597.676C687.928 592.82 683.291 588.676 677.867 585.917C677.506 583.488 675.974 581.372 675.267 579.013C673.96 575.685 672.902 572.285 671.949 568.852C680.793 570.692 689.402 577.108 691.516 586.077ZM609.212 570.207C609.217 570.122 609.22 570.039 609.217 569.954C609.222 569.951 609.227 569.949 609.23 569.946C609.46 569.721 609.716 569.548 609.997 569.425C609.731 569.678 609.47 569.939 609.212 570.207ZM610.531 602.501C609.879 604.163 609.24 605.831 608.611 607.501C605.493 606.968 598.858 605.711 596.143 604.278C597.111 604.311 598.069 603.808 598.314 602.653C598.422 602.143 598.592 601.664 598.726 601.166C600.363 595.835 601.76 590.396 604.072 585.286C606.334 579.889 609.024 574.646 611.08 569.17C614.566 568.949 620.073 573.271 622.562 575.034C618.122 583.981 614.177 593.158 610.546 602.461C610.478 602.461 610.408 602.461 610.341 602.463C610.403 602.476 610.469 602.488 610.531 602.501ZM693.414 608.332C693.66 609.662 693.938 610.982 694.126 612.324C694.602 617.57 695.252 623.096 693.226 628.129C691.969 631.211 689.394 628.733 687.686 627.526C684.908 625.587 682.35 623.364 679.8 621.14C671.967 613.781 662.811 607.524 651.823 606.489C639.96 604.842 627.106 602.784 615.285 602.483C618.515 593.922 622.018 585.476 625.406 576.967C631.692 580.488 638.788 581.775 646.036 582.596C646.206 582.681 646.387 582.757 646.582 582.817C646.926 582.887 647.214 582.854 647.445 582.749C657.109 583.771 666.966 584.171 675.467 588.12C678.757 589.648 681.844 591.706 684.637 594.54C687.694 597.465 690.156 600.996 691.809 604.892C692.326 606.094 692.599 607.343 693.414 608.332ZM707.007 721.536C708.529 729.428 714.848 747.014 705.352 751.391C701.111 753.738 695.772 752.384 691.57 754.533C691.463 753.186 691.209 751.852 690.906 750.615C678.662 710.654 667.344 658.341 653.084 618.41C652.636 616.788 652.18 615.169 651.694 613.558C651.288 612.212 650.968 610.775 650.372 609.54C654.339 610.267 658.284 611.122 661.888 612.99C669.496 616.08 680.151 629.499 688.105 633.528C688.421 636.492 689.293 639.445 689.74 642.372C695.384 668.781 701.275 695.141 707.007 721.536ZM763.663 787.636C763.528 786.994 763.173 786.577 762.725 786.352C762.793 772.885 734.446 768.507 725.856 759.932C721.927 757.158 719.068 752.576 714.504 750.858C714.586 750.743 714.672 750.631 714.751 750.514C719.591 742.547 711.948 723.183 710.593 714.868C704.38 688.874 698.354 662.817 691.323 637.028C691.18 636.535 690.914 635.558 690.58 634.479C691.338 634.662 692.062 634.722 692.742 634.634C702.604 632.451 700.39 612.529 698.073 605.31C697.825 604.459 697.246 603.92 696.566 603.667C696.654 603.227 696.574 602.758 696.26 602.31C696.092 602.07 695.834 601.897 695.553 601.809C695.255 594.958 696.967 587.594 693.357 581.334C689.299 574.488 679.62 568.824 671.831 568.426C670.716 564.39 669.738 560.313 668.659 556.269C667.476 552.035 665.79 547.485 662.247 544.646C657.664 540.574 647.879 541.816 639.762 544.693C640.206 542.572 639.195 540.654 638.576 538.666C636.557 532.717 634.478 526.787 632.357 520.875C624.741 500.943 618.487 480.283 608.961 461.172C605.017 454.694 597.431 451.775 590.149 451.174C586.734 450.831 583.1 450.698 579.652 451.101C579.542 450.891 579.429 450.683 579.314 450.475C576.488 445.585 570.753 436.48 564.153 438.043C563.456 433.393 563.446 428.628 564.02 423.975C564.06 423.645 563.518 423.502 563.383 423.803C559.01 433.598 559.822 445.652 565.158 454.927C565.549 455.571 566.081 455.904 566.633 455.999C567.483 465.737 569.607 475.347 572.227 484.78C571.833 484.795 571.455 484.878 571.139 485.018C562.779 488.075 553.586 488.574 544.885 486.788C542.435 486.272 540.062 485.579 537.678 484.873C537.226 483.31 536.775 481.753 536.321 480.193C535.183 475.265 534.892 470.53 532.003 466.561C531.832 466.268 531.657 465.977 531.489 465.687C529.169 461.485 526.812 457.306 524.438 453.137C523.861 452.453 520.004 444.864 517.003 440.274C517.379 440.264 517.768 440.169 518.146 439.978C520.262 438.924 520.24 435.867 520.626 433.816C521.81 427.443 523.179 421.061 523.555 414.578C523.575 414.247 523.069 414.107 522.92 414.408C520.034 420.122 518.033 426.236 515.897 432.259C515.854 432.379 515.809 432.501 515.762 432.627C513.781 430.133 510.303 429.539 507.273 430.21C502.211 431.53 499.658 435.639 498.186 440.311C483.629 447.25 466.307 440.164 457.472 458.521C455.259 463.855 454.302 469.587 454.33 475.572C454.644 476.932 454.882 478.312 455.097 479.679C455.618 482.987 455.963 486.322 456.55 489.62C457.192 493.223 458.216 496.768 459.345 500.246C461.835 507.92 465.14 515.29 468.359 522.679C468.741 523.557 467.445 524.321 467.06 523.437C465.287 519.368 463.489 515.309 461.808 511.2C459.375 505.253 457.08 499.114 455.667 492.814C449.335 526.335 447.366 560.583 448.729 594.653C448.232 618.273 433.723 638.766 429.565 661.753C427.492 670.812 426.19 680.1 426.351 689.407C426.064 693.832 427.796 700.151 432.741 699.98C433.608 700.33 434.472 700.645 435.345 700.946C435.591 701.039 435.826 701.119 436.044 701.185C436.289 701.26 436.514 701.244 436.711 701.171C440.51 738.698 470.651 745.913 505.277 739.209C506.711 739.234 508.121 738.903 509.628 738.48C510.36 738.262 511.087 738.035 511.814 737.794C512.361 737.664 512.91 737.531 513.459 737.394C537.144 732.578 561.969 731.785 584.354 721.921C597.301 716.265 609.485 707.433 616.822 695.204C621.1 702.708 624.669 710.4 626.462 718.536C627.743 724.403 629.94 740.579 631.589 746.365C632.359 749.245 633.688 751.669 635.423 753.71C635.419 753.719 635.415 753.727 635.41 753.737C636.898 754.569 638.22 755.67 639.278 756.994C638.151 766.541 628.407 775.724 633.39 785.693C631.039 791.097 636.809 795.494 641.558 796.609C648.837 798.933 656.35 800.681 663.805 802.341C678.566 805.089 724.762 815.247 735.82 807.34C735.662 805.652 737.74 800.168 735.287 800.087C736.375 799.015 737.276 797.762 737.959 796.402C744.727 798.601 752.248 797.814 759.139 797.002C764.712 797.122 764.507 791.701 763.663 787.636Z" fill="black"/>
<path fill-rule="evenodd" clip-rule="evenodd" d="M597.586 375.694C596.638 360.118 591.587 342.46 576.723 334.813C543.953 321.652 500.867 354.794 498.586 388.651C497.791 400.241 504.221 412.905 515.972 416.127C518.585 419.591 522.536 421.706 526.436 423.542C572.885 447.657 602.89 428.054 597.586 375.694Z" fill="#E8B18B"/>
<path fill-rule="evenodd" clip-rule="evenodd" d="M608.168 366.005C606.526 361.443 604.792 356.915 602.968 352.423C601.192 348.051 599.587 343.585 597.381 339.42C584.203 314.545 560.241 314.545 547.855 317.795C541.432 315.026 529.4 315.807 522.712 318.306C511.884 322.352 498.685 338.267 494.172 345.417C484.208 361.205 477.99 382.218 484.608 400.461C485.473 402.845 486.577 405.053 487.819 407.181C487.036 408.243 486.136 409.248 485.138 410.235C482.173 413.171 479.208 416.009 476.647 419.32C474.102 422.61 471.992 426.108 470.422 429.966C467.46 437.24 467.317 445.477 471.233 452.419C474.64 458.458 480.674 462.956 487.473 463.385C487.822 463.433 488.172 463.478 488.523 463.513C489.424 464.998 490.522 466.365 491.776 467.557C495.617 471.213 504.773 473.089 509.995 473.209C510.263 473.424 510.533 473.639 510.804 473.852C513.999 476.369 517.352 478.908 521.02 480.698C523.505 481.913 526.763 482.927 529.356 482.05C530.532 482.837 532.461 482.671 533.627 482.028C535.544 480.971 537.103 479.068 538.051 477.12C540.351 472.39 539.798 467.214 539.207 462.161C538.557 456.58 537.931 450.996 537.295 445.414C536.797 441.05 536.277 436.613 534.951 432.409C534.265 430.23 533.367 428.137 532.206 426.169C532.236 426.003 532.231 425.838 532.183 425.683C531.803 424.446 531.017 423.797 530.086 422.956C529.966 422.848 529.846 422.738 529.728 422.625C529.263 422.095 528.765 421.601 528.232 421.183C528.027 420.975 527.824 420.765 527.621 420.555C525.937 418.789 524.346 416.934 522.932 414.946C521.561 413.018 520.322 411.004 519.144 408.954C517.945 406.868 517.152 404.567 515.956 402.496C515.853 402.318 515.593 402.283 515.448 402.431C515.077 402.814 514.84 403.239 514.885 403.688L514.7 403.715C514.63 403.039 514.006 402.488 513.161 402.636C511.895 402.856 510.854 402.939 509.758 402.518C509.95 401.239 510.128 399.957 510.303 398.672C510.623 396.308 510.921 393.937 511.176 391.566C511.794 391.714 512.407 391.926 513.008 392.197C513.864 392.58 514.672 393.096 515.363 393.729C516.043 394.355 516.514 395.199 517.345 395.635C518.3 396.133 519.454 395.309 519.174 394.228C518.606 392.042 515.39 390.79 513.401 390.376C512.718 390.234 512.02 390.174 511.321 390.189C511.479 388.666 511.619 387.144 511.734 385.619C511.789 384.898 511.839 384.176 511.887 383.453C513.433 382.985 515.09 382.844 516.699 383.065C517.229 383.488 517.76 383.906 518.273 384.329C519.902 385.676 521.523 387.031 523.125 388.411C523.27 388.533 523.413 388.656 523.558 388.781C524.509 389.6 525.695 388.789 525.535 387.63C524.228 378.129 530.044 370.572 536.852 364.718C544.389 358.235 558.092 357.48 567.055 346.251C571.183 347.092 580.4 349.589 584.203 355.653C589.528 364.152 588.833 371.767 589.238 381.407C589.643 391.055 590.674 401.119 588.485 410.631C586.466 419.403 580.998 426.897 572.515 430.343C572.305 430.428 572.092 430.511 571.88 430.591C567.493 432.246 562.706 432.714 558.092 431.843C552.985 430.876 548.721 428.537 544.472 425.66C544.227 425.497 543.869 425.833 544.054 426.078C549.654 433.505 560.654 435.987 569.38 434.026C569.788 433.933 570.193 433.833 570.596 433.723C568.644 439.34 569.037 445.504 571.579 450.973C573.108 454.263 575.44 457.111 578.281 459.357C581.411 461.831 585.294 463.829 587.466 467.302C589.456 470.484 588.865 474.06 585.46 475.898C584.601 476.364 584.271 477.869 585.122 478.53C585.447 478.78 585.772 479.036 586.105 479.286C588.012 480.726 593.249 483.43 594.098 483.53C601.629 484.424 606.694 478.89 609.94 472.362C613.751 464.7 612.76 455.363 608.561 448.066C605.193 442.212 598.559 436.442 601.197 429.033C602.137 426.386 604.062 424.13 605.931 422.092C608.063 419.771 610.355 417.597 612.399 415.194C614.431 412.807 616.233 410.211 617.239 407.216C618.708 402.839 617.977 398.106 616.873 393.737C614.509 384.357 611.438 375.102 608.168 366.005Z" fill="black"/>
<path fill-rule="evenodd" clip-rule="evenodd" d="M566.14 414.974C564.454 414.287 562.95 413.142 561.851 411.679C561.468 411.17 561.369 410.633 561.449 410.142C561.54 409.589 561.867 409.089 562.313 408.753C562.761 408.416 563.321 408.25 563.862 408.334C564.333 408.408 564.801 408.665 565.172 409.199L565.249 409.305C565.903 410.189 566.755 410.913 567.726 411.38C568.661 411.83 569.708 412.04 570.79 411.918C572.852 411.686 574.274 410.572 575.785 409.06C575.972 408.869 576.159 408.672 576.348 408.472C576.466 408.29 576.631 408.174 576.815 408.113C577.018 408.045 577.248 408.049 577.459 408.122C577.662 408.193 577.844 408.327 577.966 408.506C578.082 408.676 578.147 408.885 578.126 409.127C577.988 410.694 577.167 412.093 576.002 413.191C574.707 414.411 572.991 415.255 571.376 415.551C569.596 415.877 567.782 415.643 566.14 414.974ZM572.216 390.796C574.109 391.945 576.994 394.625 574.957 397.474C572.559 399.987 569.107 397.106 567.406 395.803C565.828 394.794 564.056 397.391 565.52 398.569C577.813 407.658 582.802 391.096 573.173 389.444C572.113 389.262 571.719 390.44 572.216 390.796ZM550.186 380.224C550.395 377.63 554.35 377.041 554.744 379.608C555.096 381.906 554.681 384.018 553.644 386.087C552.654 388.065 550.163 387.142 549.975 385.342C549.723 382.928 550.056 381.837 550.186 380.224ZM580.293 379.076C580.845 378.354 581.641 377.862 582.595 378.14C585.575 379.01 584.697 383.235 583.65 385.291C583.081 386.408 581.243 386.691 580.412 385.708C579.058 384.105 578.41 380.902 580.131 379.323C580.178 379.241 580.23 379.159 580.293 379.076ZM553.602 368.876L554.073 368.794C555.53 368.543 557.34 368.301 558.371 369.47C558.917 370.09 559.105 371.243 558.371 371.836C557.079 372.88 555.65 372.475 554.102 372.564C552.826 372.637 551.6 372.848 550.371 373.199C547.675 373.968 545.478 375.373 543.175 376.915C542.873 377.118 542.565 376.732 542.709 376.45C544.038 373.85 546.614 371.714 549.195 370.412C550.572 369.717 552.079 369.141 553.602 368.876ZM577.576 367.712L577.937 367.785C581.858 368.604 586.952 370.239 588.809 374.085C588.88 374.629 588.805 374.745 588.745 374.821L588.724 374.847C588.674 374.912 588.634 375.001 588.398 375.075C588.333 375.06 588.267 375.043 588.2 375.026C587.348 374.803 586.675 374.496 586.023 374.178L585.316 373.83C584.496 373.429 583.669 373.042 582.792 372.756C580.921 372.147 578.996 371.717 577.042 371.488C576.618 371.438 576.21 371.296 575.888 371.051C575.583 370.819 575.349 370.497 575.243 370.07C575.105 369.516 575.145 369.098 575.442 368.599C575.665 368.224 575.985 367.964 576.352 367.815C576.727 367.663 577.153 367.627 577.576 367.712Z" fill="black"/>
<path fill-rule="evenodd" clip-rule="evenodd" d="M594.658 392.321C591.613 395.463 586.531 396.364 582.48 394.679C572.08 390.34 577.171 376.806 585.192 373.172C586.194 372.922 587.532 372.33 588.752 372.196C588.863 372.142 589.103 372.299 589.394 372.151C598.239 373.137 600.253 386.847 594.658 392.321ZM561.112 393.125C557.697 397.648 551.349 399.043 546.162 396.941C535.916 392.911 539.55 380.91 546.56 376.205C561.369 370.648 567.485 384.787 561.112 393.125ZM538.899 383.105C538.889 383.1 538.88 383.098 538.87 383.094C538.924 383.07 538.978 383.046 539.032 383.022C539.015 383.068 538.996 383.113 538.979 383.159C538.952 383.141 538.929 383.119 538.899 383.105ZM601.707 378.216C600.871 378.218 599.663 378.355 598.971 378.934C597.264 373.187 590.965 367.868 585.486 371.746C581.172 373.132 577.97 376.205 576.151 380.29C572.87 378.341 567.712 379.173 564.867 381.75C563.004 375.602 558.418 373.45 552.96 373.132C547.003 372.158 541.066 377.935 539.213 382.569C537.673 382.394 535.371 381.904 533.922 382.854C524.517 380.391 508.073 379.033 506.161 380.401C504.799 380.923 504.051 384.135 505.954 384.308C507.613 384.073 505.761 381.955 507.432 381.724C516.34 381.173 524.988 382.964 533.801 383.716C534.588 384.773 537.13 385.126 538.487 384.701C536.35 392.563 540.962 397.912 547.872 399.514C558.571 401.968 567.879 392.41 565.081 382.47C568.322 380.86 572.05 380.929 575.581 381.777C569.681 403.459 604.651 402.486 599.19 379.677C602.824 381.483 603.614 378.581 601.707 378.216Z" fill="black"/>
<path d="M283.368 789.469C298.268 789.469 310.347 777.595 310.347 762.949C310.347 748.303 298.268 736.43 283.368 736.43C268.469 736.43 256.39 748.303 256.39 762.949C256.39 777.595 268.469 789.469 283.368 789.469Z" fill="#212121"/>
<path fill-rule="evenodd" clip-rule="evenodd" d="M275.88 739.98C271.635 741.155 267.805 743.544 264.838 746.867C261.871 750.19 259.891 754.309 259.127 758.743C258.364 763.177 258.85 767.741 260.528 771.902C262.207 776.063 265.008 779.649 268.604 782.239C284.472 793.7 306.737 783.524 307.955 764.339C308.838 746.933 291.772 734.926 275.88 739.98ZM292.404 735.424C296.456 736.615 300.193 738.729 303.333 741.608C306.474 744.488 308.938 748.057 310.539 752.05C312.141 756.043 312.839 760.354 312.581 764.663C312.324 768.971 311.117 773.163 309.052 776.926C306.329 781.609 302.433 785.461 297.767 788.085C293.101 790.709 287.835 792.008 282.515 791.849C277.194 791.69 272.011 790.078 267.503 787.18C262.995 784.282 259.325 780.203 256.874 775.365C245.921 752.062 268.118 727.795 292.404 735.434V735.424Z" fill="#212121"/>
<path fill-rule="evenodd" clip-rule="evenodd" d="M283.575 776.596C283.575 776.596 303.579 769.3 298.377 755.063C297.892 753.404 296.895 751.95 295.536 750.92C294.177 749.889 292.528 749.336 290.837 749.345C289.145 749.353 287.502 749.923 286.153 750.967C284.804 752.012 283.821 753.475 283.352 755.139C282.88 753.48 281.895 752.022 280.544 750.984C279.193 749.947 277.55 749.386 275.862 749.386C274.173 749.386 272.53 749.947 271.18 750.984C269.829 752.022 268.843 753.48 268.371 755.139C263.172 769.376 282.819 776.253 283.575 776.596Z" fill="white"/>
<path fill-rule="evenodd" clip-rule="evenodd" d="M291.344 746.901C298.656 747.12 302.377 754.99 301.451 761.712C300.87 765.176 299.235 768.364 296.778 770.819C293.239 774.352 289.017 777.09 284.385 778.857V778.822V778.857C283.313 779.175 282.944 778.934 281.838 778.483C274.209 775.352 266.212 769.728 265.236 761.407C264.856 757.581 265.892 753.748 268.139 750.666C269.062 749.533 270.21 748.614 271.508 747.972C272.805 747.329 274.222 746.978 275.663 746.942C277.103 746.905 278.535 747.185 279.862 747.761C281.189 748.337 282.38 749.197 283.356 750.282C284.398 749.199 285.642 748.342 287.014 747.761C288.387 747.18 289.859 746.888 291.344 746.901ZM285.804 755.072C285.463 756.024 285.345 757.363 283.362 757.547C281.302 757.369 281.227 755.935 280.883 755.009C280.379 754.027 279.622 753.206 278.693 752.634C277.764 752.063 276.699 751.764 275.616 751.77C272.319 751.808 270.593 754.834 270.014 758.143C268.796 765.848 276.694 771.149 283.591 774.004C290.408 771.089 298.12 765.388 296.723 757.794C294.957 749.001 287.263 751.294 285.804 755.072Z" fill="#212121"/>
<path fill-rule="evenodd" clip-rule="evenodd" d="M1009.49 343C1046.68 343.495 1074.67 377.133 1066.14 413.572C1055.71 456.038 1002.91 469.833 970.338 441.998C930.817 407.062 955.847 342.899 1009.49 343ZM993.279 352.539C986.378 354.66 979.983 358.225 974.496 363.007C941.011 392.312 958.694 447.891 1005.33 453.17V453.189C1015.84 453.879 1026.31 451.367 1035.42 445.969C1044.54 440.572 1051.89 432.532 1056.55 422.863C1074.81 382.821 1037.05 339.444 993.279 352.539Z" fill="#212121"/>
<path fill-rule="evenodd" clip-rule="evenodd" d="M1032.13 412.55L1031.93 414.58C1023.84 424.623 1010.63 426.584 998.698 422.948C994.275 421.456 990.203 419.039 986.741 415.849L986.676 415.776L986.366 413.743C990.261 413.156 985.22 413.27 996.737 415.776C1003.32 417.64 1010.23 417.939 1016.94 416.652C1021.56 416.079 1026.04 414.626 1030.14 412.369L1032.13 412.55Z" fill="#212121"/>
<path fill-rule="evenodd" clip-rule="evenodd" d="M994.698 387.027C996.699 391.252 995.593 388.429 995.937 395.392C996.008 396.344 996.154 395.528 995.252 398.72L992.907 400.058H992.882L990.298 399.291L988.99 396.886C988.817 396.363 988.845 389.907 988.835 389.907L989.734 387.316L992.157 386.113H992.182L994.698 387.027Z" fill="#212121"/>
<path fill-rule="evenodd" clip-rule="evenodd" d="M1029.35 386.323C1031.35 390.548 1030.25 387.722 1030.59 394.688C1030.66 395.639 1030.81 394.824 1029.91 398.015L1027.56 399.354H1027.54L1024.95 398.586L1023.64 396.182C1023.41 395.487 1023.57 391.024 1023.49 389.203L1024.39 386.611L1026.81 385.409H1026.84L1029.35 386.323Z" fill="#212121"/>
<path fill-rule="evenodd" clip-rule="evenodd" d="M283.494 337C320.675 337.495 348.667 371.133 340.137 407.572C329.707 450.038 276.906 463.833 244.338 435.998C204.817 401.062 229.847 336.899 283.494 337ZM267.279 346.539C260.378 348.66 253.983 352.225 248.496 357.007C215.011 386.312 232.694 441.891 279.326 447.17V447.189C289.835 447.879 300.309 445.367 309.425 439.969C318.541 434.572 325.892 426.532 330.55 416.863C348.812 376.821 311.051 333.444 267.279 346.539Z" fill="#212121"/>
<path fill-rule="evenodd" clip-rule="evenodd" d="M306.134 406.55L305.932 408.58C297.842 418.623 284.63 420.584 272.698 416.948C268.275 415.456 264.203 413.039 260.741 409.849L260.676 409.776L260.366 407.743C264.261 407.156 259.22 407.27 270.737 409.776C277.317 411.64 284.226 411.939 290.936 410.652C295.559 410.079 300.036 408.626 304.138 406.369L306.134 406.55Z" fill="#212121"/>
<path fill-rule="evenodd" clip-rule="evenodd" d="M268.698 381.027C270.699 385.252 269.593 382.429 269.937 389.392C270.008 390.344 270.154 389.528 269.252 392.72L266.907 394.058H266.882L264.298 393.291L262.99 390.886C262.817 390.363 262.845 383.907 262.835 383.907L263.734 381.316L266.157 380.113H266.182L268.698 381.027Z" fill="#212121"/>
<path fill-rule="evenodd" clip-rule="evenodd" d="M303.351 380.323C305.352 384.548 304.246 381.722 304.59 388.688C304.662 389.639 304.81 388.824 303.906 392.015L301.56 393.354H301.535L298.951 392.586L297.644 390.182C297.414 389.487 297.569 385.024 297.492 383.203L298.393 380.611L300.813 379.409H300.838L303.351 380.323Z" fill="#212121"/>
<path d="M469.053 157.915C484.52 157.915 497.058 145.426 497.058 130.021C497.058 114.616 484.52 102.127 469.053 102.127C453.586 102.127 441.048 114.616 441.048 130.021C441.048 145.426 453.586 157.915 469.053 157.915Z" fill="#212121"/>
<path fill-rule="evenodd" clip-rule="evenodd" d="M461.155 105.429C456.674 106.693 452.632 109.254 449.502 112.812C446.371 116.371 444.281 120.78 443.476 125.524C442.67 130.269 443.183 135.153 444.953 139.607C446.724 144.061 449.679 147.9 453.474 150.676C470.283 163.056 493.999 151.707 495.003 131.512C496.078 113.89 478.902 99.8565 461.155 105.429ZM478.306 101.494C482.45 102.728 486.271 104.919 489.483 107.902C492.695 110.886 495.215 114.584 496.854 118.721C498.493 122.858 499.209 127.326 498.947 131.791C498.686 136.256 497.454 140.601 495.345 144.502C492.559 149.36 488.572 153.358 483.796 156.08C479.02 158.803 473.63 160.152 468.183 159.986C462.736 159.821 457.431 158.149 452.817 155.142C448.202 152.134 444.447 147.902 441.939 142.883C430.687 118.614 453.662 93.5666 478.306 101.494Z" fill="#212121"/>
<path fill-rule="evenodd" clip-rule="evenodd" d="M469.27 144.375C469.27 144.375 490.036 136.681 484.632 121.724C484.129 119.979 483.094 118.449 481.683 117.365C480.272 116.28 478.561 115.699 476.805 115.708C475.049 115.717 473.342 116.316 471.942 117.415C470.541 118.513 469.521 120.053 469.034 121.804C468.545 120.057 467.522 118.523 466.12 117.431C464.718 116.339 463.012 115.748 461.259 115.748C459.506 115.748 457.8 116.339 456.398 117.431C454.996 118.523 453.973 120.057 453.484 121.804C448.091 136.769 468.486 144.015 469.27 144.375Z" fill="white"/>
<path fill-rule="evenodd" clip-rule="evenodd" d="M469.388 146.462C468.88 146.448 468.922 146.475 467.632 145.948C461.696 143.455 455.318 139.446 452.27 133.604C450.745 130.657 450.23 127.26 450.81 123.97C451.391 120.679 453.032 117.691 455.464 115.496C457.556 114.033 460.091 113.414 462.591 113.757C465.092 114.1 467.385 115.38 469.039 117.356C470.065 116.183 471.313 115.243 472.705 114.594C474.098 113.944 475.604 113.6 477.13 113.583C482.351 113.652 485.593 117.348 487.007 122.56C489.357 131.694 483.617 138.71 475.732 143.475C473.733 144.715 471.605 145.717 469.388 146.462ZM477.07 117.757C475.944 117.775 474.84 118.081 473.856 118.649C472.873 119.218 472.04 120.03 471.433 121.013C470.747 122.319 471.25 122.742 470.035 123.618C469.628 123.859 469.153 123.945 468.691 123.861C468.23 123.778 467.811 123.529 467.508 123.159C466.867 122.225 467.243 122.335 466.771 121.277C465.99 119.843 464.73 118.754 463.228 118.218C461.727 117.682 460.088 117.735 458.621 118.367C457.136 119.46 455.979 120.966 455.285 122.713C454.59 124.459 454.387 126.374 454.699 128.235C455.732 134.959 463.174 139.592 469.266 142.136C475.186 139.619 482.425 134.654 483.416 128.053C483.733 125.423 483.172 122.759 481.827 120.505C481.339 119.652 480.641 118.948 479.805 118.465C478.97 117.982 478.026 117.738 477.07 117.757Z" fill="#212121"/>
<path d="M974.163 678.857C992.256 678.857 1006.92 664.44 1006.92 646.656C1006.92 628.872 992.256 614.455 974.163 614.455C956.07 614.455 941.403 628.872 941.403 646.656C941.403 664.44 956.07 678.857 974.163 678.857Z" fill="#212121"/>
<path fill-rule="evenodd" clip-rule="evenodd" d="M964.919 618.283C959.677 619.743 954.949 622.699 951.287 626.806C947.624 630.914 945.179 636.004 944.237 641.481C943.295 646.958 943.894 652.597 945.965 657.738C948.036 662.88 951.494 667.312 955.933 670.516C975.544 684.769 1003.34 671.785 1004.51 648.394C1005.77 628.035 985.679 611.834 964.919 618.283ZM984.981 613.741C989.829 615.166 994.299 617.695 998.056 621.139C1001.81 624.583 1004.76 628.853 1006.68 633.629C1008.59 638.404 1009.43 643.562 1009.13 648.716C1008.82 653.87 1007.38 658.886 1004.91 663.389C1001.65 668.996 996.987 673.61 991.4 676.753C985.814 679.895 979.508 681.451 973.137 681.261C966.766 681.07 960.56 679.14 955.162 675.669C949.764 672.198 945.371 667.313 942.436 661.52C929.277 633.488 956.156 604.573 984.981 613.725V613.741Z" fill="#212121"/>
<path fill-rule="evenodd" clip-rule="evenodd" d="M974.413 663.227C974.413 663.227 998.702 654.345 992.384 637.079C991.796 635.063 990.587 633.297 988.936 632.044C987.286 630.792 985.283 630.121 983.229 630.131C981.174 630.141 979.178 630.833 977.54 632.102C975.902 633.371 974.709 635.149 974.141 637.171C973.567 635.155 972.37 633.384 970.73 632.124C969.09 630.864 967.094 630.183 965.043 630.183C962.993 630.183 960.997 630.864 959.357 632.124C957.717 633.384 956.52 635.155 955.946 637.171C949.638 654.446 973.493 662.811 974.413 663.227Z" fill="white"/>
<path fill-rule="evenodd" clip-rule="evenodd" d="M974.538 665.632C973.943 665.632 973.993 665.651 972.487 665.042C965.543 662.164 958.082 657.536 954.516 650.792C952.729 647.392 952.124 643.472 952.799 639.673C953.475 635.875 955.391 632.424 958.234 629.888C960.681 628.199 963.646 627.485 966.571 627.881C969.497 628.276 972.179 629.754 974.114 632.035C975.313 630.681 976.773 629.595 978.402 628.845C980.031 628.096 981.794 627.699 983.579 627.68C989.69 627.759 993.495 632.026 995.137 638.04C997.885 648.587 991.168 656.686 981.943 662.187C979.611 663.619 977.126 664.775 974.538 665.632ZM983.542 632.498C982.225 632.518 980.934 632.872 979.783 633.528C978.633 634.184 977.659 635.122 976.949 636.257C976.143 637.761 976.732 638.253 975.313 639.264C974.836 639.542 974.28 639.641 973.74 639.544C973.2 639.448 972.71 639.161 972.354 638.735C971.607 637.656 972.044 637.783 971.495 636.559C970.581 634.904 969.106 633.649 967.35 633.03C965.593 632.412 963.677 632.473 961.961 633.202C960.223 634.463 958.868 636.202 958.056 638.218C957.243 640.234 957.005 642.445 957.37 644.594C958.578 652.356 967.285 657.704 974.411 660.642C981.336 657.736 989.801 652.004 990.963 644.384C991.33 641.345 990.667 638.269 989.085 635.67C988.516 634.689 987.704 633.878 986.731 633.321C985.757 632.764 984.657 632.48 983.542 632.498Z" fill="#212121"/>
</svg>
