<svg width="1291" height="915" viewBox="0 0 1291 915" fill="none" xmlns="http://www.w3.org/2000/svg">
<rect width="1291" height="915" fill="white"/>
<path opacity="0.1" d="M1205 518.028C1205.01 536.188 1202.76 554.263 1198.31 571.739C1194 588.587 1187.66 604.715 1179.47 619.689C1179.47 673.942 1146.42 720.831 1098.45 743.138C1078.4 752.366 1056.9 757.078 1035.19 756.999H299.235C259.899 756.999 223.447 745.239 193.552 725.206C184.997 719.498 176.881 713.019 169.287 705.833C136.06 674.191 115.459 630.464 115.459 582.167C96.8104 550.349 86.9223 513.204 87.0005 475.265C87.0005 395.824 129.404 327.516 190.151 297.358C198.218 293.355 206.553 290.053 215.082 287.482C218.098 286.572 221.147 285.757 224.229 285.035C232.444 283.096 240.777 281.829 249.159 281.245C252.189 281.035 255.235 280.916 258.297 280.887H259.978C263.359 280.887 266.711 281.017 270.043 281.234L271.138 279.176C272.48 276.693 273.855 274.235 275.262 271.802C277.803 267.369 280.468 263.001 283.256 258.699C286.175 254.158 289.221 249.689 292.394 245.293L293.205 244.21C295.003 241.726 296.84 239.272 298.717 236.846C304.58 229.273 310.77 221.928 317.285 214.81C387.756 138.271 498.158 89 622.272 89C718.846 89 807.123 118.833 874.74 168.126C900.356 152.063 929.293 143.635 958.727 143.664C1054.25 143.664 1131.7 230.695 1131.7 338.053C1131.69 344.845 1131.36 351.633 1130.73 358.389C1153.75 376.45 1172.52 400.381 1185.45 428.165C1198.37 455.949 1205.08 486.77 1205 518.028Z" fill="#0075FF"/>
<path opacity="0.2" d="M976.57 216H951.06V241.51H976.57V216Z" fill="#1769FF"/>
<path opacity="0.4" d="M488.44 248.311H462.93V273.821H488.44V248.311Z" fill="#1769FF"/>
<path opacity="0.4" d="M558.17 248.311H532.66V273.821H558.17V248.311Z" fill="#1769FF"/>
<path opacity="0.4" d="M627.9 248.311H602.39V273.821H627.9V248.311Z" fill="#1769FF"/>
<path opacity="0.4" d="M697.64 248.311H672.13V273.821H697.64V248.311Z" fill="#1769FF"/>
<path opacity="0.4" d="M732.5 248.311H706.99V273.821H732.5V248.311Z" fill="#1769FF"/>
<path opacity="0.4" d="M802.24 248.311H776.73V273.821H802.24V248.311Z" fill="#1769FF"/>
<path opacity="0.4" d="M837.1 248.311H811.59V273.821H837.1V248.311Z" fill="#1769FF"/>
<path opacity="0.4" d="M941.7 248.311H916.19V273.821H941.7V248.311Z" fill="#1769FF"/>
<path opacity="0.4" d="M488.44 280.63H462.93V306.14H488.44V280.63Z" fill="#1769FF"/>
<path opacity="0.4" d="M523.31 280.63H497.8V306.14H523.31V280.63Z" fill="#1769FF"/>
<path opacity="0.4" d="M627.9 280.63H602.39V306.14H627.9V280.63Z" fill="#1769FF"/>
<path opacity="0.4" d="M732.5 280.63H706.99V306.14H732.5V280.63Z" fill="#1769FF"/>
<path opacity="0.4" d="M941.7 280.63H916.19V306.14H941.7V280.63Z" fill="#1769FF"/>
<path opacity="0.4" d="M523.31 312.939H497.8V338.449H523.31V312.939Z" fill="#1769FF"/>
<path opacity="0.4" d="M558.17 312.939H532.66V338.449H558.17V312.939Z" fill="#1769FF"/>
<path opacity="0.4" d="M662.77 312.939H637.26V338.449H662.77V312.939Z" fill="#1769FF"/>
<path opacity="0.4" d="M697.64 312.939H672.13V338.449H697.64V312.939Z" fill="#1769FF"/>
<path opacity="0.4" d="M732.5 312.939H706.99V338.449H732.5V312.939Z" fill="#1769FF"/>
<path opacity="0.4" d="M767.37 312.939H741.86V338.449H767.37V312.939Z" fill="#1769FF"/>
<path opacity="0.4" d="M1011.43 312.939H985.92V338.449H1011.43V312.939Z" fill="#1769FF"/>
<path opacity="0.4" d="M279.24 345.26H253.73V370.77H279.24V345.26Z" fill="#1769FF"/>
<path opacity="0.4" d="M523.31 345.26H497.8V370.77H523.31V345.26Z" fill="#1769FF"/>
<path opacity="0.4" d="M314.11 377.57H288.6V403.08H314.11V377.57Z" fill="#1769FF"/>
<path opacity="0.4" d="M1046.3 377.57H1020.79V403.08H1046.3V377.57Z" fill="#1769FF"/>
<path opacity="0.7" d="M418.71 248.311H393.2V273.821H418.71V248.311Z" fill="#1769FF"/>
<path opacity="0.7" d="M314.11 280.63H288.6V306.14H314.11V280.63Z" fill="#1769FF"/>
<path opacity="0.7" d="M383.84 280.63H358.33V306.14H383.84V280.63Z" fill="#1769FF"/>
<path opacity="0.7" d="M418.71 280.63H393.2V306.14H418.71V280.63Z" fill="#1769FF"/>
<path opacity="0.7" d="M871.97 280.63H846.46V306.14H871.97V280.63Z" fill="#1769FF"/>
<path opacity="0.7" d="M906.83 280.63H881.32V306.14H906.83V280.63Z" fill="#1769FF"/>
<path opacity="0.7" d="M383.84 312.939H358.33V338.449H383.84V312.939Z" fill="#1769FF"/>
<path opacity="0.7" d="M418.71 312.939H393.2V338.449H418.71V312.939Z" fill="#1769FF"/>
<path opacity="0.7" d="M941.7 312.939H916.19V338.449H941.7V312.939Z" fill="#1769FF"/>
<path opacity="0.7" d="M976.57 312.939H951.06V338.449H976.57V312.939Z" fill="#1769FF"/>
<path opacity="0.7" d="M383.84 345.26H358.33V370.77H383.84V345.26Z" fill="#1769FF"/>
<path opacity="0.7" d="M418.71 345.26H393.2V370.77H418.71V345.26Z" fill="#1769FF"/>
<path opacity="0.7" d="M976.57 345.26H951.06V370.77H976.57V345.26Z" fill="#1769FF"/>
<path opacity="0.7" d="M418.71 377.57H393.2V403.08H418.71V377.57Z" fill="#1769FF"/>
<path opacity="0.7" d="M209.51 409.891H184V435.401H209.51V409.891Z" fill="#1769FF"/>
<path opacity="0.7" d="M244.38 409.891H218.87V435.401H244.38V409.891Z" fill="#1769FF"/>
<path opacity="0.7" d="M279.24 409.891H253.73V435.401H279.24V409.891Z" fill="#1769FF"/>
<path opacity="0.7" d="M314.11 409.891H288.6V435.401H314.11V409.891Z" fill="#1769FF"/>
<path opacity="0.7" d="M348.98 409.891H323.47V435.401H348.98V409.891Z" fill="#1769FF"/>
<path opacity="0.2" d="M314.11 221.16V241.51H295.11C301.064 234.523 307.397 227.74 314.11 221.16Z" fill="#1769FF"/>
<path opacity="0.2" d="M348.98 216H323.47V241.51H348.98V216Z" fill="#1769FF"/>
<path opacity="0.2" d="M383.84 216H358.33V241.51H383.84V216Z" fill="#1769FF"/>
<path opacity="0.2" d="M418.71 216H393.2V241.51H418.71V216Z" fill="#1769FF"/>
<path opacity="0.2" d="M453.57 216H428.06V241.51H453.57V216Z" fill="#1769FF"/>
<path opacity="0.2" d="M488.44 216H462.93V241.51H488.44V216Z" fill="#1769FF"/>
<path opacity="0.2" d="M558.17 216H532.66V241.51H558.17V216Z" fill="#1769FF"/>
<path opacity="0.2" d="M593.04 216H567.53V241.51H593.04V216Z" fill="#1769FF"/>
<path opacity="0.2" d="M627.9 216H602.39V241.51H627.9V216Z" fill="#1769FF"/>
<path opacity="0.2" d="M697.64 216H672.13V241.51H697.64V216Z" fill="#1769FF"/>
<path opacity="0.2" d="M732.5 216H706.99V241.51H732.5V216Z" fill="#1769FF"/>
<path opacity="0.2" d="M767.37 216H741.86V241.51H767.37V216Z" fill="#1769FF"/>
<path opacity="0.2" d="M802.24 216H776.73V241.51H802.24V216Z" fill="#1769FF"/>
<path opacity="0.2" d="M837.1 216H811.59V241.51H837.1V216Z" fill="#1769FF"/>
<path opacity="0.2" d="M871.97 216H846.46V241.51H871.97V216Z" fill="#1769FF"/>
<path opacity="0.2" d="M1011.43 216H985.92V241.51H1011.43V216Z" fill="#1769FF"/>
<path opacity="0.2" d="M314.11 248.311H288.6V273.821H314.11V248.311Z" fill="#1769FF"/>
<path opacity="0.2" d="M383.84 248.311H358.33V273.821H383.84V248.311Z" fill="#1769FF"/>
<path opacity="0.2" d="M453.57 248.311H428.06V273.821H453.57V248.311Z" fill="#1769FF"/>
<path opacity="0.2" d="M593.04 248.311H567.53V273.821H593.04V248.311Z" fill="#1769FF"/>
<path opacity="0.2" d="M767.37 248.311H741.86V273.821H767.37V248.311Z" fill="#1769FF"/>
<path opacity="0.2" d="M871.97 248.311H846.46V273.821H871.97V248.311Z" fill="#1769FF"/>
<path opacity="0.2" d="M906.83 248.311H881.32V273.821H906.83V248.311Z" fill="#1769FF"/>
<path opacity="0.2" d="M976.57 248.311H951.06V273.821H976.57V248.311Z" fill="#1769FF"/>
<path opacity="0.2" d="M209.51 288.311V306.141H184V297.431C192.254 293.734 200.783 290.685 209.51 288.311Z" fill="#1769FF"/>
<path opacity="0.2" d="M244.38 282.55V306.14H218.87V286.05L244.38 282.55Z" fill="#1769FF"/>
<path opacity="0.2" d="M453.57 280.63H428.06V306.14H453.57V280.63Z" fill="#1769FF"/>
<path opacity="0.2" d="M593.04 280.63H567.53V306.14H593.04V280.63Z" fill="#1769FF"/>
<path opacity="0.2" d="M697.64 280.63H672.13V306.14H697.64V280.63Z" fill="#1769FF"/>
<path opacity="0.2" d="M767.37 280.63H741.86V306.14H767.37V280.63Z" fill="#1769FF"/>
<path opacity="0.2" d="M837.1 280.63H811.59V306.14H837.1V280.63Z" fill="#1769FF"/>
<path opacity="0.2" d="M976.57 280.63H951.06V306.14H976.57V280.63Z" fill="#1769FF"/>
<path opacity="0.2" d="M209.51 312.939H184V338.449H209.51V312.939Z" fill="#1769FF"/>
<path opacity="0.2" d="M244.38 312.939H218.87V338.449H244.38V312.939Z" fill="#1769FF"/>
<path opacity="0.2" d="M279.24 312.939H253.73V338.449H279.24V312.939Z" fill="#1769FF"/>
<path opacity="0.2" d="M314.11 312.939H288.6V338.449H314.11V312.939Z" fill="#1769FF"/>
<path opacity="0.2" d="M453.57 312.939H428.06V338.449H453.57V312.939Z" fill="#1769FF"/>
<path opacity="0.2" d="M488.44 312.939H462.93V338.449H488.44V312.939Z" fill="#1769FF"/>
<path opacity="0.2" d="M627.9 312.939H602.39V338.449H627.9V312.939Z" fill="#1769FF"/>
<path opacity="0.2" d="M802.24 312.939H776.73V338.449H802.24V312.939Z" fill="#1769FF"/>
<path opacity="0.2" d="M837.1 312.939H811.59V338.449H837.1V312.939Z" fill="#1769FF"/>
<path opacity="0.2" d="M871.97 312.939H846.46V338.449H871.97V312.939Z" fill="#1769FF"/>
<path opacity="0.2" d="M906.83 312.939H881.32V338.449H906.83V312.939Z" fill="#1769FF"/>
<path opacity="0.2" d="M1046.3 312.939H1020.79V338.449H1046.3V312.939Z" fill="#1769FF"/>
<path opacity="0.2" d="M209.51 345.26H184V370.77H209.51V345.26Z" fill="#1769FF"/>
<path opacity="0.2" d="M244.38 345.26H218.87V370.77H244.38V345.26Z" fill="#1769FF"/>
<path opacity="0.2" d="M314.11 345.26H288.6V370.77H314.11V345.26Z" fill="#1769FF"/>
<path opacity="0.2" d="M348.98 345.26H323.47V370.77H348.98V345.26Z" fill="#1769FF"/>
<path opacity="0.2" d="M453.57 345.26H428.06V370.77H453.57V345.26Z" fill="#1769FF"/>
<path opacity="0.2" d="M488.44 345.26H462.93V370.77H488.44V345.26Z" fill="#1769FF"/>
<path opacity="0.2" d="M593.04 345.26H567.53V370.77H593.04V345.26Z" fill="#1769FF"/>
<path opacity="0.2" d="M732.5 345.26H706.99V370.77H732.5V345.26Z" fill="#1769FF"/>
<path opacity="0.2" d="M802.24 345.26H776.73V370.77H802.24V345.26Z" fill="#1769FF"/>
<path opacity="0.2" d="M837.1 345.26H811.59V370.77H837.1V345.26Z" fill="#1769FF"/>
<path opacity="0.2" d="M871.97 345.26H846.46V370.77H871.97V345.26Z" fill="#1769FF"/>
<path opacity="0.2" d="M906.83 345.26H881.32V370.77H906.83V345.26Z" fill="#1769FF"/>
<path opacity="0.2" d="M941.7 345.26H916.19V370.77H941.7V345.26Z" fill="#1769FF"/>
<path opacity="0.2" d="M1011.43 345.26H985.92V370.77H1011.43V345.26Z" fill="#1769FF"/>
<path opacity="0.2" d="M1046.3 345.26H1020.79V370.77H1046.3V345.26Z" fill="#1769FF"/>
<path opacity="0.2" d="M209.51 377.57H184V403.08H209.51V377.57Z" fill="#1769FF"/>
<path opacity="0.2" d="M244.38 377.57H218.87V403.08H244.38V377.57Z" fill="#1769FF"/>
<path opacity="0.2" d="M279.24 377.57H253.73V403.08H279.24V377.57Z" fill="#1769FF"/>
<path opacity="0.2" d="M348.98 377.57H323.47V403.08H348.98V377.57Z" fill="#1769FF"/>
<path opacity="0.2" d="M383.84 377.57H358.33V403.08H383.84V377.57Z" fill="#1769FF"/>
<path opacity="0.2" d="M453.57 377.57H428.06V403.08H453.57V377.57Z" fill="#1769FF"/>
<path opacity="0.2" d="M488.44 377.57H462.93V403.08H488.44V377.57Z" fill="#1769FF"/>
<path opacity="0.2" d="M523.31 377.57H497.8V403.08H523.31V377.57Z" fill="#1769FF"/>
<path opacity="0.2" d="M593.04 377.57H567.53V403.08H593.04V377.57Z" fill="#1769FF"/>
<path opacity="0.2" d="M697.64 377.57H672.13V403.08H697.64V377.57Z" fill="#1769FF"/>
<path opacity="0.2" d="M732.5 377.57H706.99V403.08H732.5V377.57Z" fill="#1769FF"/>
<path opacity="0.2" d="M767.37 377.57H741.86V403.08H767.37V377.57Z" fill="#1769FF"/>
<path opacity="0.2" d="M802.24 377.57H776.73V403.08H802.24V377.57Z" fill="#1769FF"/>
<path opacity="0.2" d="M837.1 377.57H811.59V403.08H837.1V377.57Z" fill="#1769FF"/>
<path opacity="0.2" d="M871.97 377.57H846.46V403.08H871.97V377.57Z" fill="#1769FF"/>
<path opacity="0.2" d="M906.83 377.57H881.32V403.08H906.83V377.57Z" fill="#1769FF"/>
<path opacity="0.2" d="M941.7 377.57H916.19V403.08H941.7V377.57Z" fill="#1769FF"/>
<path opacity="0.2" d="M976.57 377.57H951.06V403.08H976.57V377.57Z" fill="#1769FF"/>
<path opacity="0.2" d="M1011.43 377.57H985.92V403.08H1011.43V377.57Z" fill="#1769FF"/>
<path opacity="0.2" d="M383.84 409.891H358.33V435.401H383.84V409.891Z" fill="#1769FF"/>
<path opacity="0.2" d="M418.71 409.891H393.2V435.401H418.71V409.891Z" fill="#1769FF"/>
<path opacity="0.2" d="M453.57 409.891H428.06V435.401H453.57V409.891Z" fill="#1769FF"/>
<path opacity="0.2" d="M488.44 409.891H462.93V435.401H488.44V409.891Z" fill="#1769FF"/>
<path opacity="0.2" d="M523.31 409.891H497.8V435.401H523.31V409.891Z" fill="#1769FF"/>
<path opacity="0.2" d="M558.17 409.891H532.66V435.401H558.17V409.891Z" fill="#1769FF"/>
<path opacity="0.2" d="M627.9 409.891H602.39V435.401H627.9V409.891Z" fill="#1769FF"/>
<path opacity="0.2" d="M662.77 409.891H637.26V435.401H662.77V409.891Z" fill="#1769FF"/>
<path opacity="0.2" d="M697.64 409.891H672.13V435.401H697.64V409.891Z" fill="#1769FF"/>
<path opacity="0.2" d="M767.37 409.891H741.86V435.401H767.37V409.891Z" fill="#1769FF"/>
<path opacity="0.2" d="M802.24 409.891H776.73V435.401H802.24V409.891Z" fill="#1769FF"/>
<path opacity="0.2" d="M837.1 409.891H811.59V435.401H837.1V409.891Z" fill="#1769FF"/>
<path opacity="0.2" d="M871.97 409.891H846.46V435.401H871.97V409.891Z" fill="#1769FF"/>
<path opacity="0.2" d="M906.83 409.891H881.32V435.401H906.83V409.891Z" fill="#1769FF"/>
<path opacity="0.2" d="M941.7 409.891H916.19V435.401H941.7V409.891Z" fill="#1769FF"/>
<path opacity="0.2" d="M976.57 409.891H951.06V435.401H976.57V409.891Z" fill="#1769FF"/>
<path opacity="0.2" d="M1011.43 409.891H985.92V435.401H1011.43V409.891Z" fill="#1769FF"/>
<path opacity="0.2" d="M1046.3 409.891H1020.79V435.401H1046.3V409.891Z" fill="#1769FF"/>
<path d="M523.31 216H497.8V241.51H523.31V216Z" fill="#1769FF"/>
<path d="M662.77 216H637.26V241.51H662.77V216Z" fill="#1769FF"/>
<path d="M906.83 216H881.32V241.51H906.83V216Z" fill="#1769FF"/>
<path d="M941.7 216H916.19V241.51H941.7V216Z" fill="#1769FF"/>
<path d="M1046.3 216H1020.79V241.51H1046.3V216Z" fill="#1769FF"/>
<path d="M1081.16 216H1055.65V241.51H1081.16V216Z" fill="#1769FF"/>
<path d="M348.98 248.311H323.47V273.821H348.98V248.311Z" fill="#1769FF"/>
<path d="M523.31 248.311H497.8V273.821H523.31V248.311Z" fill="#1769FF"/>
<path d="M662.77 248.311H637.26V273.821H662.77V248.311Z" fill="#1769FF"/>
<path d="M1011.43 248.311H985.92V273.821H1011.43V248.311Z" fill="#1769FF"/>
<path d="M1046.3 248.311H1020.79V273.821H1046.3V248.311Z" fill="#1769FF"/>
<path d="M1081.16 248.311H1055.65V273.821H1081.16V248.311Z" fill="#1769FF"/>
<path d="M348.98 280.63H323.47V306.14H348.98V280.63Z" fill="#1769FF"/>
<path d="M558.17 280.63H532.66V306.14H558.17V280.63Z" fill="#1769FF"/>
<path d="M662.77 280.63H637.26V306.14H662.77V280.63Z" fill="#1769FF"/>
<path d="M1011.43 280.63H985.92V306.14H1011.43V280.63Z" fill="#1769FF"/>
<path d="M1081.16 280.63H1055.65V306.14H1081.16V280.63Z" fill="#1769FF"/>
<path d="M1081.16 312.939H1055.65V338.449H1081.16V312.939Z" fill="#1769FF"/>
<path d="M1081.16 377.57H1055.65V403.08H1081.16V377.57Z" fill="#1769FF"/>
<path d="M1081.16 409.891H1055.65V435.401H1081.16V409.891Z" fill="#1769FF"/>
<path d="M593.04 409.891H567.53V435.401H593.04V409.891Z" fill="#1769FF"/>
<path d="M732.5 409.891H706.99V435.401H732.5V409.891Z" fill="#1769FF"/>
<path d="M279.25 261.721V273.821H271.07C273.67 269.701 276.397 265.667 279.25 261.721Z" fill="#1769FF"/>
<path d="M279.24 280.63H253.73V306.14H279.24V280.63Z" fill="#1769FF"/>
<path d="M802.24 280.63H776.73V306.14H802.24V280.63Z" fill="#1769FF"/>
<path d="M1046.3 280.63H1020.79V306.14H1046.3V280.63Z" fill="#1769FF"/>
<path d="M348.98 312.939H323.47V338.449H348.98V312.939Z" fill="#1769FF"/>
<path d="M593.04 312.939H567.53V338.449H593.04V312.939Z" fill="#1769FF"/>
<path d="M558.17 345.26H532.66V370.77H558.17V345.26Z" fill="#1769FF"/>
<path d="M627.9 345.26H602.39V370.77H627.9V345.26Z" fill="#1769FF"/>
<path d="M662.77 345.26H637.26V370.77H662.77V345.26Z" fill="#1769FF"/>
<path d="M697.64 345.26H672.13V370.77H697.64V345.26Z" fill="#1769FF"/>
<path d="M767.37 345.26H741.86V370.77H767.37V345.26Z" fill="#1769FF"/>
<path d="M1081.16 345.26H1055.65V370.77H1081.16V345.26Z" fill="#1769FF"/>
<path d="M558.17 377.57H532.66V403.08H558.17V377.57Z" fill="#1769FF"/>
<path d="M627.9 377.57H602.39V403.08H627.9V377.57Z" fill="#1769FF"/>
<path d="M662.77 377.57H637.26V403.08H662.77V377.57Z" fill="#1769FF"/>
<path fill-rule="evenodd" clip-rule="evenodd" d="M834.792 567.907C829.161 568.436 823.53 568.963 817.898 569.492C790.928 571.462 763.969 575.576 737.206 578.045C736.539 577.009 735.235 577.179 734.443 577.9C731.773 577.676 728.779 575.725 726.36 577.755C726.282 577.744 726.203 577.732 726.124 577.725C721.817 569.821 718.839 561.391 715.95 552.949C714.105 547.759 711.624 542.735 707.038 539.25C699.212 534.057 681.281 523.525 672.092 523.968C671.94 522.395 671.173 520.773 669.913 519.726C672.689 515.202 661.591 512.25 660.808 512.774C661.31 497.66 653.873 484.533 637.476 481.524C622.785 478.597 601.891 478.105 593.99 492.783C593.121 492.69 584.244 492.645 583.385 492.737C582.049 491.12 567.383 506.444 573.394 511.779C519.653 534.507 489.095 531.795 474.221 595.692C472.21 601.694 472.063 608.262 469.94 614.131C462.385 630.996 456.258 648.955 454.733 667.306C451.05 668.209 450.626 674.417 454.892 675.315C456.522 675.659 457.884 676.128 459.073 677.017C458.144 692.056 461.948 726.409 464.345 726.303C469.233 741.175 491.034 745.372 506.468 740.146C503.808 744.932 506.468 747.941 506.468 750.498C562.006 752.507 622.73 751.35 678.252 754.105C685.355 754.008 692.825 755.772 699.83 754.757C704.102 753.778 704.109 747.356 699.776 746.562L718.71 742.63C718.287 742.477 726.515 737.245 732.734 727.467C738.522 716.529 734.583 703.326 737.206 691.428C757.691 689.827 778.515 689.142 798.776 685.825C801.538 693.727 813.497 684.276 817.298 680.475C817.293 680.469 817.288 680.463 817.284 680.457C819.123 679.976 820.599 678.328 820.648 676.376C821.938 674.614 822.209 672.13 820.972 670.427C826.642 639.145 835.287 607.205 838.411 575.629C839.516 575.395 840.556 574.932 841.438 574.219L841.366 574.15C842.86 572.558 843.151 569.809 840.66 568.455C838.651 567.363 836.973 567.702 834.792 567.907Z" fill="#E8B18B"/>
<path fill-rule="evenodd" clip-rule="evenodd" d="M620.619 684.988L624.957 687.627L660.45 698.561L682.14 701.2L699.887 698.561V727.593L703.436 754.74C701.859 757.505 686.873 757.505 658.478 754.74C640.378 752.977 574.225 752.122 559.163 751.746L558.309 751.724C540.61 751.235 523.127 751.235 505.859 751.724V741.543L555.155 718.167L599.324 694.414L620.619 684.988ZM595.47 490.41L598.73 492.737L591.613 503.916L626.283 530.728V552.143L637.259 562.069L643.533 552.143L652.373 540.903L658.656 522.683L656.517 510.68L660.819 510.292C660.839 511.113 660.836 511.94 660.808 512.774C661.591 512.25 672.689 515.202 669.914 519.726C671.173 520.773 671.94 522.394 672.092 523.967C681.282 523.525 699.213 534.057 707.038 539.25C711.624 542.735 714.105 547.759 715.95 552.949L716.384 554.215L716.832 555.515L717.284 556.813C719.78 563.953 722.475 571.028 726.124 577.724C726.203 577.732 726.282 577.744 726.361 577.755C728.78 575.725 731.773 577.676 734.443 577.9C735.217 577.196 736.479 577.017 737.158 577.975L737.206 578.045L703.933 584.312L681.982 657.927L662.866 643.092L652.605 644.55L625.509 653.894L593.994 661.72L522.05 680.684H512.888L459.576 668.375L454.771 666.859C456.358 648.663 462.447 630.859 469.94 614.131C472.063 608.262 472.21 601.694 474.221 595.691C489.096 531.795 519.653 534.507 573.394 511.778C567.383 506.444 582.049 491.12 583.385 492.737L583.469 492.73L583.651 492.721L583.886 492.713C585.982 492.655 593.211 492.699 593.99 492.783C594.442 491.943 594.937 491.153 595.47 490.41Z" fill="#1769FF"/>
<path fill-rule="evenodd" clip-rule="evenodd" d="M840.11 570.142L839.119 575.422C838.884 575.496 838.644 575.558 838.401 575.609C838.09 578.757 837.723 581.909 837.311 585.063L831.166 617.805C830.106 623.597 829.1 629.402 828.101 635.209L826.778 641.446L825.958 645.323C824.189 653.718 822.47 662.086 820.962 670.408C821.189 670.721 821.366 671.061 821.495 671.418L821.378 671.887L821.298 672.199L821.215 672.508C820.025 676.882 817.954 681.124 813.074 682.411C809.393 683.381 805.354 683.469 801.553 683.852L801.132 683.896L734.618 691.047C726.581 691.911 718.548 692.801 710.516 693.701L703.553 694.481C693.847 695.556 684.086 696.401 674.523 698.346C674.172 698.418 673.881 698.552 673.644 698.729C675.569 691.76 677.413 684.8 679.083 677.761C680.963 669.838 682.748 661.9 684.759 654.006C688.811 638.102 693.353 622.303 698.325 606.64C699.368 603.353 700.436 600.072 701.527 596.798L702.292 594.51L702.882 592.687C703.793 589.907 704.922 587.05 707.595 585.516C710.724 583.721 714.99 583.424 718.539 582.803L720.942 582.372C724.537 581.73 728.137 581.113 731.741 580.521C748.997 577.683 766.35 575.407 783.768 573.697C801.892 571.918 820.08 570.761 838.289 570.196L840.11 570.142ZM675.022 679.311L675.192 679.324L672.707 698.312C672.31 698.046 671.806 697.883 671.19 697.885C663.041 697.908 655.229 695.418 647.673 692.68L646.522 692.261L643.314 691.082C640.053 689.888 636.775 688.719 633.435 687.751L632.085 687.361L631.399 687.167C628.87 686.462 626.211 685.82 623.581 685.66L623.222 685.642L623.988 685.258C624.1 685.201 624.198 685.138 624.285 685.071C625.733 685.173 627.184 685.145 628.711 684.882C631.582 684.388 634.375 683.433 636.939 682.103L638.084 681.509L638.553 681.272L638.863 681.118L639.171 680.969C641.373 679.92 643.479 679.262 646.259 679.821C649.416 680.457 652.182 682.083 655.028 683.458L655.533 683.698L655.872 683.855L656.218 684.01L656.569 684.163C660.417 685.819 666.54 687.605 668.016 682.604C668.609 680.594 668.144 678.712 667.116 677.062C669.033 676.904 672.456 679.064 675.022 679.311ZM770.805 616.749L770.851 616.977C771.395 619.778 770.031 622.456 767.966 624.409C766.272 626.011 763.275 626.901 762.426 629.205C761.942 630.516 762.456 631.759 763.449 632.626L763.221 632.734L762.997 632.844L762.779 632.954L762.566 633.065L762.359 633.177C758.985 635.03 756.238 638.043 759.28 641.683C762.732 645.812 769.944 645.945 775.025 645.622L775.367 645.599C780.294 645.246 786.13 643.664 788.802 639.315C790.027 637.319 789.892 634.906 788.184 633.199C787.154 632.169 785.316 631.111 783.63 630.985C783.704 630.077 783.591 629.201 783.257 628.46C782.534 626.861 780.612 625.783 778.757 625.745C778.908 622.348 776.062 618.994 773.966 616.279L773.752 616L773.545 615.726C772.583 614.447 770.526 615.164 770.805 616.749ZM773.616 620.365L775.525 627.202L775.493 627.258C774.82 628.479 776.583 629.865 777.629 628.839L777.734 628.731C778.975 627.506 780.88 629.153 780.903 630.457C780.937 632.293 779.687 633.712 778.198 634.65L778.093 634.715L777.819 634.878C776.597 635.65 777.522 637.265 778.866 637.068C780.528 636.825 781.891 635.564 782.731 633.99C783.628 634.236 784.65 634.206 785.595 634.712C787.977 635.985 786.607 638.213 785.056 639.56L784.993 639.614L784.867 639.719C782.021 642.04 778.146 642.846 774.494 643.018L774.284 643.028C770.594 643.178 765.788 643.229 762.626 641.154C760.658 639.864 760.088 638.033 761.753 636.299C762.695 635.319 763.646 634.33 764.625 633.375C766.09 634.043 767.398 633.772 768.896 633.139C769.089 633.058 768.982 632.777 768.794 632.777C767.967 632.776 764.934 631.309 764.787 630.372C764.65 629.504 766.328 628.773 767.144 628.354L767.263 628.292L767.365 628.235C768.219 627.741 769.022 627.165 769.756 626.519C771.62 624.879 772.973 622.822 773.565 620.57L773.616 620.365Z" fill="white"/>
<path fill-rule="evenodd" clip-rule="evenodd" d="M595.014 489.374C596.688 485.353 602.344 486.916 601.713 491.14C601.336 493.67 599.887 496.342 598.585 498.559C597.525 500.364 596.316 502.125 594.676 503.478C597.595 506.081 600.624 508.589 603.73 510.971C607.119 513.569 610.683 515.964 614.367 518.165C617.597 520.095 620.973 521.806 624.018 524.008C626.849 526.056 629.428 528.519 630.741 531.734C632.139 535.158 631.531 538.693 630.502 542.115L630.383 542.501C629.332 545.891 627.511 549.977 630.036 553.17C631.321 554.796 633.189 555.948 634.803 557.247C636.237 558.403 637.583 559.659 638.817 561.008C641.508 563.95 643.698 567.26 645.079 570.948L645.203 571.283C646.387 574.548 647.252 578.548 645.652 581.753C645.193 582.672 643.713 582.374 643.455 581.479C642.874 579.452 642.905 577.329 642.417 575.274C641.91 573.136 641.066 571.107 639.964 569.187C637.831 565.473 634.943 562.3 631.53 559.618L630.509 558.824C627.847 556.735 625.401 554.519 624.861 551.062C624.283 547.364 625.832 543.841 626.829 540.341C627.523 537.901 627.75 535.563 627 533.358C626.083 534.789 624.832 536.147 623.842 537.359C621.872 539.772 619.883 542.171 617.899 544.574C615.864 547.038 613.88 549.541 611.991 552.109C611.146 553.258 610.31 554.414 609.476 555.571C608.85 556.44 607.976 557.309 607.293 558.196C607.459 558.67 607.446 559.217 607.145 559.605C603.523 564.284 598.37 554.521 597.026 552.054C594.289 547.031 592.252 541.694 589.506 536.672C586.661 531.466 583.421 526.399 579.81 521.646C577.625 518.771 575.177 516.071 573.179 513.104C568.471 517.185 562.276 519.921 556.586 522.402C550.335 525.128 543.84 527.354 537.43 529.718L535.537 530.421C524.493 534.542 513.179 539.069 503.999 546.389C493.212 554.99 486.83 566.979 482.079 579.393C476.61 593.685 472.086 608.362 467.868 623.03C465.709 630.535 463.662 638.074 461.736 645.637C460.04 652.3 458.633 659.029 456.669 665.624C460.653 665.489 465.195 666.963 468.596 667.389C484.094 669.328 499.384 672.42 514.016 677.773C515.823 678.434 516.346 680.16 515.953 681.559C516.995 681.278 518.036 680.992 519.079 680.713C517.937 679.04 518.482 676.049 518.572 674.195L518.577 674.067C518.669 671.597 518.95 669.123 519.132 666.657C519.478 661.956 519.928 657.289 520.528 652.615L520.681 651.446C521.36 646.36 521.862 641.245 522.603 636.168L522.69 635.587C522.335 634.288 521.921 633.005 521.487 631.728C520.33 628.325 518.697 625.122 517.266 621.826C517.097 621.439 517.675 621.216 517.945 621.448C520.369 623.533 522.294 626.178 523.841 628.943C523.868 628.813 523.892 628.682 523.92 628.552L524.096 627.721C524.531 625.696 525.061 623.565 526.36 621.922C526.499 621.747 526.772 621.711 526.903 621.922C528.147 623.934 528.286 626.483 528.478 628.772C528.694 631.363 528.721 633.986 528.683 636.583C528.609 641.659 528.234 646.749 527.936 651.817C527.644 656.797 527.069 661.714 526.329 666.645L526.188 667.57C525.826 669.917 525.53 672.293 525.053 674.624L524.918 675.259C524.663 676.415 524.506 678.045 523.998 679.399C537.067 675.914 550.155 672.508 563.269 669.163C572.746 666.745 582.234 664.362 591.718 661.965C592.218 661.103 592.841 660.298 593.619 659.578C596.181 657.206 599.577 656.147 602.691 657.973C602.944 658.122 602.965 658.501 602.691 658.645C602.094 658.957 601.496 659.277 600.909 659.61L606.604 658.135C610.86 657.032 615.168 655.654 619.524 654.886C627.548 651.1 636.179 648.359 644.631 645.651L645.628 645.329C649.956 643.918 654.432 642.339 658.904 641.557C662.178 640.985 666.02 641.675 667.337 644.882C669.003 645.932 670.571 647.166 672.084 648.379C673.178 649.256 674.227 650.189 675.293 651.097L675.49 651.262C676.362 651.985 677.052 652.469 677.266 653.62C677.377 654.215 676.982 655.019 676.215 654.94C673.868 654.7 671.959 652.099 670.368 650.546C669.138 649.345 667.899 648.104 666.776 646.785C666.122 647.125 665.225 647.064 664.809 646.31C662.649 642.401 656.733 645.11 653.46 646.037L648.771 647.364C646.427 648.028 644.083 648.696 641.744 649.375C635.314 651.242 628.916 653.331 622.428 655.045C623.008 655.656 622.928 656.741 621.826 657.153C616.747 659.059 611.175 660.044 605.899 661.351C602.568 662.177 599.239 663.008 595.911 663.844C595.34 664.728 594.93 665.728 594.757 666.892C594.122 671.171 595.347 676.109 596.54 680.248L596.719 680.866C597.7 684.193 599.143 688.273 602.146 690.374C602.88 690.887 603.813 691.243 604.754 691.324C610.633 688.431 616.511 685.538 622.393 682.651C623.483 682.116 624.49 682.84 624.734 683.702C626.808 683.376 628.877 682.863 630.762 682.252C633.929 681.224 636.401 679.263 639.37 677.906C645.115 675.283 650.981 678.505 656.124 680.955L657.309 681.512C659.616 682.582 664.414 684.638 665.521 681.712C666.591 678.881 663.207 675.855 661.021 674.581C658.416 673.062 655.383 672.249 652.438 671.572C650.757 671.185 649.055 670.87 647.344 670.639C645.402 670.378 643.396 670.417 641.526 669.815C640.597 669.517 640.454 668.106 641.526 667.873C644.404 667.246 647.839 667.93 650.843 668.628L652.413 668.997C655.439 669.707 658.494 670.598 661.25 672.014C663.254 673.045 665.37 674.609 666.751 676.525C667.952 675.459 669.445 675.495 671.001 675.89L671.845 676.115C673.24 676.484 674.37 676.738 675.727 676.482C675.908 675.539 676.092 674.595 676.289 673.65C678.222 664.37 680.343 655.125 682.683 645.929C686.719 630.068 691.389 614.381 696.653 598.855L697.182 597.303C698.396 593.751 699.373 589.882 701.331 586.62C703.183 583.535 706.149 581.758 709.674 580.817C713.673 579.749 717.876 579.19 721.956 578.469C722.866 578.308 723.779 578.156 724.69 577.998C723.92 576.669 723.345 575.16 722.828 574.003L722.737 573.802C721.625 571.378 720.626 568.911 719.661 566.43L718.94 564.565C717.198 560.074 715.4 555.657 712.951 551.457C710.374 547.036 706.954 543.422 702.692 540.431C694.001 534.332 683.525 531.221 675.095 524.704C674.75 524.437 675.193 523.98 675.543 524.149C681.235 526.883 687.38 528.742 693.3 530.968L694.468 531.409C699.147 533.183 703.9 535.113 707.95 537.984C712.465 541.186 716.022 545.162 718.695 549.891C721.329 554.552 723.014 559.769 724.873 564.747L725.37 566.074C726.12 568.063 726.894 570.046 727.781 571.982C728.486 573.519 729.8 575.273 730.397 577.029C732.032 576.758 733.666 576.486 735.303 576.224C770.743 570.567 806.58 567.243 842.496 566.271C843.901 566.233 844.628 567.515 844.421 568.687C840.974 588.172 837.911 607.725 834.55 627.225C833.083 635.736 831.587 644.241 830.055 652.741C829.28 657.048 828.383 661.337 827.648 665.65C827.055 669.133 826.624 672.644 825.606 676.046C824.693 679.097 823.291 682.038 820.989 684.366C818.508 686.875 815.045 688.089 811.558 688.663C802.708 690.119 793.631 690.714 784.709 691.684L737.209 696.85C737.903 702.882 737.955 708.821 737.636 714.923L737.455 718.254C737.307 720.934 737.129 723.617 736.727 726.269C736.222 729.596 734.63 732.413 732.286 734.897C730.133 737.179 727.517 739.126 724.973 740.992C722.333 742.929 719.604 744.799 716.499 745.997L716.096 746.149C713.372 747.166 708.263 748.741 704.54 748.165C705.026 750.497 705.968 753.003 705.133 755.31C704.746 756.381 703.281 756.915 702.383 756.004C700.605 754.198 700.466 751.812 700.045 749.455C699.607 747.003 699.229 744.542 698.893 742.075C698.244 737.305 697.739 732.491 697.585 727.681C697.426 722.741 697.488 717.794 697.766 712.86C697.909 710.326 698.087 707.793 698.423 705.275C698.567 704.201 698.713 703.127 698.881 702.056C698.942 701.665 699.01 701.276 699.083 700.888L694.819 701.348C688.282 702.046 681.742 702.676 675.158 702.774C674.379 702.785 673.779 702.446 673.387 701.952C672.969 702.602 672.242 703.067 671.2 703.064C662.006 703.031 653.445 700.157 645.083 696.769C640.868 695.061 636.718 693.212 632.497 691.519C628.557 689.938 624.344 688.811 620.499 687.03L610.396 692.097C610.322 692.346 610.227 692.582 610.126 692.779C609.468 694.063 608.171 694.759 606.846 695.284C605.575 695.788 604.258 695.945 602.975 695.818C595.312 699.657 587.648 703.492 579.978 707.318L572.307 711.142C557.023 718.75 541.799 726.483 526.419 733.912L525.287 734.457C519.974 737.004 514.27 739.586 508.374 741.512C508.27 742.939 508.336 744.326 508.461 745.836L508.491 746.165C508.667 747.95 509.044 750.186 507.546 751.456C506.767 752.117 505.376 752.119 504.846 751.123C503.885 749.317 504.748 746.469 505.053 744.507C505.161 743.809 505.292 743.091 505.487 742.395C498.729 744.319 491.765 745.252 484.888 744.171C478.191 743.121 473.005 739.087 468.824 734.154C464.411 728.948 461.276 722.881 459.593 716.378C457.679 708.977 457.554 701.335 457.599 693.755C457.646 685.682 457.959 677.57 458.986 669.553C457.86 669.3 456.613 669.081 455.476 669.157C454.913 670.018 453.82 670.381 452.833 670.269C450.687 672.532 456.131 674.845 457.871 675.424C458.475 675.626 458.411 676.564 457.714 676.536L457.275 676.516C454.586 676.379 451.809 675.94 450.228 673.551C448.961 671.637 449.342 669.368 450.852 667.807C451.849 658.791 454.233 650.012 456.453 641.217C458.63 632.585 461.052 624.008 463.619 615.475L464.77 611.655C468.811 598.275 473.036 584.786 478.611 571.937C481.395 565.521 484.602 559.224 488.949 553.63C493.001 548.415 497.785 543.953 503.284 540.141C513.535 533.036 525.565 528.743 537.384 524.652L537.913 524.469C544.038 522.351 550.148 520.207 556.203 517.912C561.558 515.883 566.688 513.31 572.018 511.249C571.845 510.949 571.678 510.645 571.517 510.338L571.418 510.417C571.401 510.43 571.384 510.442 571.366 510.454C570.83 510.809 570.041 510.634 569.599 510.236C568.352 509.111 568.774 507.862 569.607 506.695L569.715 506.547C570.734 505.183 571.642 503.741 572.582 502.328L573.17 501.444C574.747 499.083 576.405 496.707 578.508 494.755C579.483 493.851 580.549 493.175 581.679 492.671C581.582 492.476 582.429 492.076 582.669 492.277C586.249 491.025 590.367 491.287 594.27 491.632M734.91 697.1L729.933 697.641C724.458 698.237 718.98 698.813 713.502 699.383L701.603 700.619C701.573 701.268 701.491 701.902 701.476 702.392C701.398 704.917 701.34 707.443 701.285 709.969C701.175 715.032 701.296 720.099 701.644 725.152C701.982 730.049 702.427 734.946 703.119 739.809L703.26 740.781L703.342 741.292C703.907 741.344 704.461 741.601 704.922 742.127C705.929 743.276 709.573 742.16 710.996 741.675C713.337 740.879 715.541 739.534 717.575 738.185C719.561 736.868 721.349 735.332 723.068 733.714L724.474 732.384C725.873 731.055 727.273 729.639 728.13 727.968C729.292 725.701 729.442 722.918 729.783 720.45C730.203 717.413 730.702 714.377 731.23 711.355M590.433 665.224L589.916 665.354C571.164 670.118 552.439 675.023 533.629 679.576C524.321 681.83 514.968 683.92 505.648 686.13L504.139 686.491C496.786 688.268 489.346 690.406 483.715 695.505C483.507 695.693 483.206 695.404 483.401 695.205C489.469 689.029 498.1 686.414 506.386 684.148C507.918 683.729 509.452 683.32 510.984 682.903C499.714 679.062 488.267 675.721 476.556 673.338C473.54 672.724 470.489 672.273 467.476 671.657C465.374 671.227 463.322 670.606 461.242 670.09L459.607 669.697L459.585 674.639C459.558 681.639 459.571 688.633 459.944 695.631L460.015 696.928C460.451 704.717 461.131 712.667 464.022 720.011C466.371 725.979 470.116 731.601 475.013 735.947C477.491 738.147 480.155 739.859 483.447 740.704C486.505 741.489 489.708 741.581 492.852 741.371C507.928 740.366 521.348 732.536 534.444 726.053C555.865 715.45 577.288 704.852 598.731 694.289C598.151 693.91 597.605 693.473 597.109 692.983C594.233 690.144 592.716 686.257 591.72 682.493C590.66 678.487 590.026 674.193 589.952 670.057M617.716 698.382C617.905 698.285 618.124 698.406 618.133 698.611C618.199 700.177 617.294 701.721 616.618 703.131L616.546 703.282C615.725 705.029 614.825 706.753 613.895 708.45C612.036 711.84 610.103 715.193 608.087 718.5C604.031 725.151 599.524 731.522 594.197 737.313C592.994 738.622 591.015 736.944 591.787 735.536C595.51 728.745 599.85 722.334 604.317 715.978C606.554 712.796 608.789 709.611 611.047 706.443C611.989 705.121 612.944 703.804 613.924 702.507L614.515 701.731M840.121 570.16C821.303 570.704 802.507 571.877 783.779 573.716C766.361 575.426 749.007 577.702 731.751 580.539C728.147 581.132 724.548 581.749 720.952 582.39L718.796 582.778C715.2 583.429 710.807 583.698 707.606 585.535C704.23 587.471 703.318 591.517 702.195 594.854C700.875 598.778 699.588 602.714 698.336 606.659C693.363 622.322 688.822 638.121 684.77 654.024C682.759 661.919 680.974 669.857 679.094 677.779C677.423 684.819 675.58 691.778 673.654 698.747C673.892 698.571 674.183 698.437 674.534 698.365C684.097 696.42 693.858 695.574 703.563 694.5L704.502 694.395C714.543 693.266 724.583 692.146 734.629 691.066L801.142 683.915C805.065 683.493 809.267 683.436 813.085 682.429C819.575 680.718 821.096 673.78 822.185 668.255L822.218 668.088C825.501 651.396 828.115 634.558 831.177 617.823M675.202 679.343C672.62 679.18 669.085 676.919 667.126 677.081C668.155 678.731 668.619 680.612 668.026 682.622C666.376 688.214 658.916 685.321 655.323 683.613C652.376 682.211 649.531 680.496 646.27 679.84C642.574 679.097 640.071 680.502 636.949 682.121C634.385 683.451 631.592 684.406 628.721 684.9C627.194 685.164 625.743 685.192 624.295 685.089C624.208 685.157 624.11 685.22 623.998 685.276L623.232 685.66C626.695 685.812 630.222 686.834 633.445 687.769C636.785 688.738 640.063 689.906 643.324 691.1L646.532 692.279C654.445 695.176 662.636 697.928 671.2 697.903C671.816 697.902 672.32 698.065 672.717 698.331M660.754 661.82C663.305 661.522 665.66 661.842 667.699 663.429C670.157 665.344 671.809 668.519 675.343 668.728C676.374 668.788 676.613 670.174 675.589 670.463C672.958 671.208 670.828 669.847 669.036 668.08L667.83 666.877C666.059 665.123 664.426 663.768 661.42 663.872C658.201 663.985 654.977 664.696 651.779 665.057C648.156 665.467 644.534 665.816 640.9 666.117C640.731 666.131 640.703 665.877 640.861 665.84L644.931 664.871M658.292 651.849L658.712 651.809C662.417 651.465 665.805 651.451 669.113 653.357L669.748 653.724C672.731 655.457 675.978 657.499 677.843 660.305C678.148 660.765 677.644 661.305 677.133 661.189C673.548 660.366 670.927 657.851 667.912 655.969C664.528 653.857 661.033 654.205 657.175 654.533C653.44 654.851 649.706 655.287 646.007 655.883C642.532 656.442 639.045 657.324 635.535 657.605L635.535 657.598C635.134 657.598 634.906 657.022 635.315 656.827C638.877 655.126 643.004 654.321 646.879 653.544M770.83 616.843C770.472 615.205 772.578 614.446 773.555 615.745L773.763 616.019C775.872 618.782 778.923 622.249 778.768 625.763C780.622 625.802 782.544 626.879 783.267 628.479C783.601 629.219 783.714 630.096 783.64 631.004C785.326 631.129 787.164 632.187 788.194 633.217C789.902 634.925 790.037 637.338 788.812 639.333C786.141 643.683 780.304 645.265 775.377 645.618L775.202 645.63C770.113 645.966 762.78 645.876 759.291 641.701C755.925 637.675 759.645 634.415 763.459 632.645C762.466 631.778 761.952 630.535 762.436 629.224C763.285 626.92 766.282 626.03 767.976 624.428C770.041 622.475 771.405 619.796 770.861 616.996M773.626 620.384C773.065 622.715 771.686 624.848 769.766 626.538C769.032 627.184 768.229 627.759 767.375 628.253L767.273 628.31C766.515 628.717 764.654 629.478 764.797 630.391C764.944 631.328 767.977 632.795 768.804 632.796C768.992 632.796 769.099 633.077 768.907 633.158C767.408 633.791 766.1 634.062 764.635 633.393C763.656 634.349 762.705 635.337 761.763 636.317C760.098 638.051 760.668 639.882 762.636 641.173C765.798 643.248 770.604 643.197 774.294 643.046C778.007 642.895 781.976 642.103 784.877 639.738L785.003 639.633C786.58 638.292 788.019 636.021 785.605 634.73C784.66 634.225 783.638 634.254 782.741 634.009C781.901 635.583 780.538 636.844 778.876 637.087C777.532 637.283 776.607 635.669 777.829 634.896L778.104 634.733C779.638 633.797 780.948 632.354 780.913 630.475C780.89 629.171 778.985 627.524 777.744 628.75L777.687 628.808C776.649 629.927 774.82 628.517 775.503 627.277L775.535 627.221M531.439 555.541C531.434 555.261 531.846 555.156 531.99 555.398C534.4 559.452 535.66 564.422 536.944 568.889C538.289 573.568 539.375 578.295 540.35 583.056C542.326 592.697 543.378 602.283 543.45 612.109C543.459 613.512 541.069 613.886 540.835 612.448C539.282 602.89 537.795 593.321 536.23 583.766C535.443 578.96 534.527 574.172 533.65 569.38M555.301 562.602C555.123 562.043 555.974 561.856 556.192 562.368C561.029 573.72 562.668 586.585 559.562 598.562C559.087 600.394 556.28 599.6 556.639 597.791M617.697 552.515C617.672 552.097 618.241 552.031 618.455 552.319C620.747 555.406 621.698 559.541 625.719 561.137C627.727 561.934 629.986 561.795 631.76 563.141C632.946 564.041 633.855 565.461 632.965 566.824C632.678 567.265 631.874 567.485 631.485 567.007C630.916 566.31 630.615 565.475 629.842 564.952C628.753 564.215 627.283 564.17 626.034 563.823C624.418 563.375 622.993 562.591 621.827 561.427M655.989 501.018C656.225 500.903 656.452 500.976 656.603 501.172C656.819 501.45 656.792 501.721 656.528 501.911C656.881 502.601 657.298 504.329 657.357 504.58C657.599 505.6 657.855 506.613 658.124 507.626C658.666 509.668 659.141 511.727 659.683 513.77C660.258 515.935 660.943 518.078 661.705 520.19C661.754 520.327 661.809 520.466 661.865 520.608L661.952 520.822L661.973 520.789C662.128 520.555 662.451 520.719 662.413 520.966C662.377 521.192 662.33 521.416 662.289 521.642L662.369 521.843C662.868 523.127 663.209 524.478 662.294 525.61C661.952 526.034 661.576 526.284 661.106 526.359C660.354 528.731 659.41 531.058 658.399 533.293L658.103 533.946C656.616 537.207 655.03 540.426 652.663 543.202C650.078 546.234 646.523 548.304 644.271 551.625C643.224 553.171 642.495 554.795 641.904 556.54L641.681 557.203C641.261 558.437 640.777 559.633 639.566 560.357C639.179 560.588 638.6 560.514 638.289 560.199C635.806 557.688 638.405 552.998 639.903 550.567C641.984 547.185 644.997 545.022 648.013 542.471C651.265 539.722 653.339 536.043 655.345 532.42C656.574 530.2 657.76 527.932 659.009 525.702C657.704 524.599 657.286 522.409 656.844 520.887L656.804 520.75C656.073 518.312 655.493 515.811 655.126 513.299C654.773 510.883 654.626 508.502 654.719 506.073L654.746 505.455M660.84 512.514C660.552 512.137 661.029 511.709 661.425 511.787C663.83 512.263 666.181 513.655 668.339 514.78L668.57 514.9C670.293 515.788 672.027 516.876 672.931 518.602C673.915 520.477 673.834 522.638 673.7 524.676L673.687 524.867C673.523 527.311 673.496 529.851 672.955 532.251C672.678 533.479 671.515 533.825 670.52 533.535C669.336 537.109 666.01 539.742 663.581 542.562C660.483 546.158 661.066 551.012 661.39 555.343C661.521 557.096 659.24 557.594 658.065 556.659L655.358 554.509C654.907 554.15 654.457 553.79 654.008 553.429C653.623 553.12 653.242 552.808 652.864 552.493L652.299 552.016C652.049 551.802 650.944 550.622 650.621 550.573C649.839 550.454 647.98 552.425 647.344 553.044L647.263 553.121C646.066 554.243 644.984 555.451 643.977 556.732C643.791 556.967 643.429 556.772 643.562 556.5C644.464 554.651 645.514 552.883 646.761 551.228L647.013 550.899C647.842 549.83 648.955 547.944 650.419 547.628C652.207 547.243 653.992 548.957 655.292 549.908L655.374 549.967C655.993 550.411 656.605 550.863 657.215 551.318C657.151 548.094 657.577 544.836 659.318 542.058C660.546 540.098 662.385 538.647 663.959 536.963C665.712 535.088 666.626 532.784 668.213 530.831C668.417 530.58 668.698 530.444 669.003 530.401C669.064 528.832 669.306 527.246 669.493 525.693L669.547 525.228C669.736 523.541 670.182 521.48 669.318 519.9C668.502 518.408 666.629 517.354 665.243 516.341L664.11 515.502M582.789 494.674C582.065 495.074 581.389 495.572 580.775 496.195C578.842 498.155 577.46 500.594 576.115 502.941C575.391 504.205 574.693 505.483 573.963 506.743C573.646 507.292 573.319 507.835 572.989 508.376C572.836 508.626 572.383 509.122 572.158 509.428C572.408 509.763 572.666 510.092 572.93 510.418C573.03 510.542 579.963 517.763 582.38 520.589C586.081 524.918 589.389 529.49 592.217 534.384C594.986 539.177 597.094 544.251 599.66 549.136C600.944 551.582 602.378 554.01 604.206 556.127C604.276 556.21 604.351 556.288 604.423 556.369C605.12 554.567 606.908 552.638 607.786 551.53L607.868 551.426C609.859 548.86 611.962 546.371 614.11 543.924C616.073 541.69 618.085 539.504 620.146 537.355L620.921 536.55C622.357 535.067 624.181 532.848 626.283 531.789C626.058 531.405 625.797 531.025 625.497 530.651C623.528 528.19 620.744 526.405 617.997 524.793L616.215 523.757C609.5 519.845 602.89 515.751 597.06 510.668C593.975 507.978 590.934 505.16 588.341 502.023L587.424 500.914M593.994 492.737C590.85 492.989 587.454 492.929 584.548 493.909C587.131 496.244 589.587 498.765 592.109 501.139C592.334 499.533 592.793 497.947 593.182 496.381" fill="black"/>
<path fill-rule="evenodd" clip-rule="evenodd" d="M700.672 417.687C699.18 394.235 691.237 367.646 667.859 356.131C616.323 336.315 548.562 386.218 544.975 437.198C543.724 454.649 553.837 473.718 572.318 478.569C576.427 483.785 582.641 486.97 588.774 489.735C661.825 526.046 709.012 496.529 700.672 417.687Z" fill="#E8B18B"/>
<path fill-rule="evenodd" clip-rule="evenodd" d="M717.314 403.099C714.732 396.229 712.005 389.412 709.136 382.648C706.342 376.065 703.818 369.34 700.349 363.068C679.625 325.613 641.94 325.613 622.46 330.507C612.358 326.337 593.437 327.514 582.918 331.277C565.889 337.368 545.13 361.332 538.033 372.099C522.363 395.871 512.584 427.511 522.993 454.98C524.353 458.57 526.088 461.896 528.042 465.1C526.811 466.698 525.395 468.211 523.826 469.698C519.163 474.118 514.501 478.392 510.473 483.377C506.47 488.331 503.152 493.599 500.682 499.407C496.024 510.361 495.799 522.764 501.957 533.216C507.315 542.31 516.806 549.082 527.499 549.728C528.048 549.801 528.597 549.868 529.149 549.921C530.566 552.157 532.294 554.216 534.265 556.01C540.306 561.515 554.706 564.339 562.919 564.52C563.34 564.844 563.765 565.169 564.19 565.489C569.215 569.278 574.489 573.102 580.258 575.797C584.166 577.626 589.289 579.153 593.366 577.833C595.216 579.017 598.25 578.768 600.084 577.799C603.098 576.208 605.55 573.343 607.042 570.409C610.658 563.287 609.789 555.494 608.86 547.885C607.837 539.481 606.853 531.073 605.853 522.669C605.07 516.097 604.251 509.416 602.166 503.085C601.087 499.805 599.675 496.653 597.849 493.69C597.896 493.441 597.888 493.192 597.813 492.958C597.215 491.096 595.979 490.119 594.515 488.852C594.327 488.69 594.138 488.524 593.953 488.355C593.221 487.555 592.438 486.812 591.599 486.183C591.277 485.87 590.958 485.553 590.639 485.236C587.991 482.578 585.488 479.785 583.264 476.791C581.108 473.888 579.16 470.856 577.306 467.768C575.421 464.628 574.174 461.163 572.293 458.044C572.131 457.777 571.722 457.724 571.494 457.946C570.911 458.523 570.537 459.164 570.608 459.839L570.317 459.881C570.207 458.863 569.227 458.033 567.897 458.256C565.906 458.587 564.268 458.712 562.545 458.078C562.848 456.152 563.127 454.221 563.403 452.287C563.906 448.728 564.375 445.157 564.776 441.587C565.748 441.809 566.712 442.13 567.657 442.537C569.003 443.114 570.274 443.89 571.36 444.844C572.43 445.787 573.17 447.058 574.477 447.714C575.98 448.464 577.794 447.223 577.353 445.595C576.46 442.303 571.403 440.418 568.275 439.796C567.2 439.581 566.102 439.49 565.004 439.513C565.252 437.221 565.473 434.928 565.654 432.632C565.74 431.546 565.819 430.46 565.894 429.371C568.326 428.666 570.931 428.454 573.461 428.786C574.296 429.423 575.13 430.053 575.937 430.69C578.499 432.719 581.049 434.759 583.567 436.836C583.796 437.021 584.02 437.206 584.248 437.394C585.744 438.627 587.609 437.405 587.357 435.66C585.303 421.355 594.449 409.976 605.157 401.161C617.01 391.399 638.56 390.262 652.656 373.354C659.148 374.62 673.643 378.38 679.625 387.512C687.999 400.309 686.905 411.774 687.543 426.29C688.181 440.818 689.802 455.971 686.358 470.294C683.183 483.502 674.584 494.787 661.243 499.975C660.913 500.103 660.578 500.228 660.244 500.348C653.345 502.84 645.817 503.545 638.56 502.233C630.528 500.778 623.822 497.256 617.14 492.924C616.754 492.679 616.191 493.184 616.483 493.554C625.29 504.737 642.59 508.473 656.312 505.521C656.954 505.382 657.591 505.231 658.225 505.065C655.155 513.522 655.773 522.805 659.771 531.039C662.176 535.993 665.844 540.28 670.31 543.662C675.233 547.387 681.341 550.396 684.757 555.626C687.885 560.418 686.957 565.802 681.601 568.57C680.251 569.271 679.731 571.537 681.069 572.532C681.581 572.909 682.093 573.294 682.616 573.671C685.615 575.839 693.851 579.911 695.185 580.062C707.031 581.408 714.996 573.075 720.1 563.246C726.094 551.708 724.535 537.649 717.932 526.662C712.635 517.847 702.202 509.16 706.35 498.003C707.83 494.018 710.856 490.621 713.796 487.551C717.149 484.056 720.753 480.784 723.969 477.164C727.164 473.571 729.997 469.661 731.579 465.152C733.89 458.561 732.74 451.435 731.005 444.856C727.286 430.732 722.457 416.796 717.314 403.099Z" fill="black"/>
<path fill-rule="evenodd" clip-rule="evenodd" d="M651.217 476.835C648.566 475.801 646.2 474.076 644.471 471.873C643.87 471.107 643.714 470.298 643.84 469.559C643.982 468.727 644.497 467.973 645.199 467.467C645.903 466.96 646.784 466.71 647.635 466.837C648.375 466.948 649.112 467.335 649.695 468.139L649.816 468.299C650.844 469.629 652.184 470.72 653.711 471.424C655.182 472.101 656.828 472.418 658.53 472.234C661.774 471.883 664.009 470.207 666.385 467.929C666.68 467.642 666.974 467.345 667.27 467.044C667.457 466.771 667.717 466.595 668.005 466.503C668.325 466.401 668.687 466.407 669.018 466.517C669.338 466.624 669.624 466.826 669.815 467.095C669.998 467.351 670.101 467.667 670.067 468.03C669.85 470.39 668.559 472.496 666.726 474.15C664.69 475.987 661.992 477.257 659.451 477.703C656.652 478.194 653.8 477.842 651.217 476.835ZM660.772 440.428C663.75 442.159 668.287 446.195 665.084 450.485C661.313 454.268 655.883 449.93 653.208 447.969C650.727 446.448 647.939 450.359 650.241 452.134C669.574 465.819 677.42 440.881 662.278 438.394C660.611 438.12 659.991 439.893 660.772 440.428ZM626.126 424.51C626.455 420.605 632.675 419.718 633.294 423.582C633.848 427.043 633.196 430.223 631.565 433.339C630.007 436.316 626.091 434.927 625.795 432.216C625.398 428.582 625.921 426.939 626.126 424.51ZM673.475 422.781C674.343 421.695 675.595 420.954 677.095 421.373C681.782 422.682 680.4 429.044 678.754 432.14C677.86 433.822 674.969 434.249 673.662 432.768C671.533 430.353 670.513 425.531 673.22 423.153C673.294 423.03 673.375 422.906 673.475 422.781ZM631.499 407.424L632.24 407.3C634.53 406.921 637.378 406.557 638.998 408.318C639.857 409.251 640.153 410.986 638.998 411.88C636.966 413.452 634.72 412.843 632.285 412.976C630.279 413.086 628.35 413.404 626.417 413.932C622.177 415.09 618.722 417.206 615.101 419.528C614.625 419.833 614.14 419.252 614.367 418.827C616.458 414.912 620.509 411.696 624.567 409.736C626.733 408.69 629.103 407.822 631.499 407.424ZM669.203 405.67L669.769 405.781C675.936 407.013 683.948 409.475 686.869 415.266C686.98 416.085 686.862 416.261 686.767 416.375L686.735 416.413C686.656 416.511 686.593 416.646 686.222 416.758C686.119 416.734 686.015 416.709 685.91 416.683C684.571 416.348 683.512 415.886 682.487 415.406L681.375 414.883C680.085 414.278 678.784 413.695 677.405 413.265C674.462 412.348 671.435 411.701 668.361 411.356C667.695 411.281 667.054 411.066 666.548 410.698C666.067 410.348 665.7 409.864 665.533 409.22C665.316 408.387 665.378 407.757 665.846 407.005C666.197 406.441 666.7 406.05 667.278 405.825C667.866 405.596 668.536 405.542 669.203 405.67Z" fill="black"/>
<path fill-rule="evenodd" clip-rule="evenodd" d="M696.066 442.724C691.278 447.454 683.285 448.811 676.915 446.275C660.559 439.741 668.565 419.362 681.179 413.889C682.755 413.514 684.86 412.623 686.779 412.421C686.953 412.339 687.33 412.575 687.788 412.352C701.698 413.837 704.866 434.481 696.066 442.724ZM643.309 443.935C637.939 450.744 627.955 452.845 619.798 449.68C603.683 443.612 609.399 425.541 620.424 418.457C643.714 410.09 653.332 431.379 643.309 443.935ZM608.376 428.846C608.361 428.84 608.346 428.836 608.33 428.829C608.415 428.794 608.501 428.758 608.585 428.721C608.558 428.79 608.528 428.859 608.501 428.928C608.459 428.9 608.423 428.868 608.376 428.846ZM707.153 421.485C705.838 421.488 703.939 421.695 702.85 422.567C700.166 413.913 690.259 405.903 681.643 411.744C674.858 413.83 669.823 418.456 666.961 424.607C661.802 421.673 653.689 422.926 649.215 426.806C646.285 417.55 639.073 414.308 630.49 413.83C621.121 412.363 611.783 421.061 608.87 428.04C606.447 427.776 602.827 427.039 600.548 428.468C585.757 424.76 559.896 422.715 556.889 424.775C554.746 425.562 553.57 430.398 556.563 430.658C559.172 430.304 556.259 427.115 558.888 426.767C572.897 425.937 586.497 428.634 600.358 429.766C601.595 431.357 605.594 431.89 607.727 431.25C604.367 443.088 611.62 451.141 622.487 453.554C639.313 457.249 653.952 442.858 649.552 427.89C654.649 425.465 660.512 425.57 666.065 426.847C656.787 459.494 711.784 458.03 703.194 423.685C708.91 426.404 710.152 422.034 707.153 421.485Z" fill="black"/>
</svg>
